<?xml version="1.0" standalone="no"?>
<!DOCTYPE svg PUBLIC "-//W3C//DTD SVG 20010904//EN"
 "http://www.w3.org/TR/2001/REC-SVG-20010904/DTD/svg10.dtd">
<svg version="1.0" xmlns="http://www.w3.org/2000/svg"
 width="600.000000pt" height="400.000000pt" viewBox="0 0 600.000000 400.000000"
 preserveAspectRatio="xMidYMid meet">
<g transform="translate(0.000000,400.000000) scale(0.100000,-0.100000)"
fill="#000000" stroke="none">
<path d="M4017 3613 c-244 -517 -337 -709 -348 -715 -12 -6 -321 -93 -456
-128 -37 -9 -49 -21 -104 -98 -75 -104 -71 -100 -76 -86 -10 29 -85 134 -95
134 -18 0 -443 -121 -458 -130 -8 -5 -18 -50 -26 -112 -16 -125 -17 -159 -5
-138 10 17 18 65 27 155 3 33 11 66 19 73 7 8 63 27 124 43 61 16 130 36 153
44 24 8 52 15 64 15 11 0 25 5 32 12 7 7 12 9 12 5 0 -3 11 -2 24 3 20 7 29 4
50 -17 15 -15 36 -44 48 -65 12 -21 28 -38 36 -38 15 0 52 37 52 52 0 5 5 6
10 3 6 -3 10 0 10 7 0 12 9 26 60 90 8 10 47 28 85 39 112 33 207 60 245 70
109 27 169 46 183 58 15 11 120 215 122 233 0 3 3 10 8 14 10 10 70 135 73
153 2 8 8 17 14 21 7 4 11 10 10 14 -5 14 32 96 42 96 6 0 8 3 5 7 -4 3 4 25
18 49 14 23 25 49 25 58 0 8 6 21 13 28 19 21 37 56 37 73 0 23 34 0 96 -65
106 -112 132 -151 123 -182 0 -2 4 -15 10 -31 10 -26 31 -193 33 -265 1 -32 3
-34 32 -27 17 4 36 8 43 9 24 4 25 17 8 133 -12 85 -23 127 -39 150 -44 64
-278 313 -295 313 -11 0 -27 -21 -44 -57z m298 -243 c-3 -5 -2 -10 3 -10 5 0
17 -12 27 -26 9 -15 12 -23 6 -20 -6 4 -11 0 -11 -9 0 -9 5 -13 10 -10 11 7
12 -2 15 -76 1 -25 4 -50 7 -55 13 -23 2 -67 -18 -74 -19 -7 -21 -4 -22 32 -1
22 -5 45 -9 51 -13 21 -15 59 -2 52 8 -6 8 -2 -1 15 -6 12 -9 28 -6 35 3 8 1
17 -4 20 -11 7 -14 68 -3 78 10 10 15 8 8 -3z"/>
<path d="M3999 3463 c-37 -76 -118 -243 -180 -371 l-114 -233 -50 -14 c-27 -7
-122 -34 -210 -59 -88 -25 -178 -50 -200 -56 -30 -8 -49 -22 -75 -58 -19 -26
-42 -54 -50 -62 -8 -8 -31 -39 -50 -67 -19 -29 -37 -53 -40 -53 -3 0 -10 10
-16 23 -26 53 -58 107 -78 131 l-21 25 -105 -30 c-243 -70 -298 -89 -305 -106
-3 -10 -10 -61 -15 -113 -4 -52 -14 -107 -20 -122 -10 -22 -10 -30 0 -43 8
-10 10 -27 5 -52 l-7 -36 -43 69 c-24 37 -41 72 -38 76 2 5 -1 7 -8 6 -7 -2
-13 2 -14 7 0 6 -25 45 -54 88 -41 58 -60 77 -78 77 -30 0 -197 -43 -295 -76
-87 -30 -88 -31 -78 -151 3 -35 2 -63 -2 -63 -4 0 -25 17 -47 38 -57 54 -126
76 -236 75 -49 0 -126 -8 -170 -18 -106 -22 -390 -112 -403 -128 -6 -7 -27
-91 -47 -187 -83 -398 -104 -496 -108 -525 -3 -16 -13 -66 -22 -110 -10 -44
-25 -117 -34 -162 l-17 -82 44 -53 c132 -160 118 -148 184 -148 231 0 560 160
704 342 16 21 37 48 46 59 10 12 18 24 18 26 0 9 -18 1 -37 -16 -12 -11 -24
-17 -27 -14 -3 4 -6 1 -6 -6 0 -16 -59 -79 -82 -86 -10 -4 -16 -11 -13 -16 4
-5 0 -9 -8 -9 -7 0 -20 -11 -27 -25 -7 -14 -21 -25 -31 -25 -13 0 -17 -5 -12
-17 3 -10 3 -15 -1 -11 -12 10 -67 -12 -60 -24 4 -6 1 -8 -7 -6 -14 5 -63 -24
-87 -52 -8 -8 -11 -10 -8 -3 5 8 -1 9 -24 0 -16 -6 -30 -15 -30 -19 0 -4 -8
-8 -19 -8 -10 0 -35 -7 -54 -15 -32 -13 -38 -13 -51 0 -8 8 -16 20 -19 27 -2
7 -8 10 -12 6 -4 -4 2 -17 14 -29 11 -12 19 -24 17 -26 -5 -5 -131 -25 -176
-28 -32 -2 -42 6 -117 83 -46 47 -83 86 -83 87 0 0 28 2 63 3 34 1 76 4 92 8
91 18 201 47 210 55 5 5 15 9 22 9 25 0 187 82 268 136 44 29 96 69 115 90
l35 37 -60 -45 c-125 -93 -246 -156 -389 -203 -106 -35 -312 -73 -339 -62 -13
5 -13 16 8 99 12 51 32 140 44 198 12 58 31 148 41 200 11 52 38 182 60 288
22 106 40 202 40 213 0 24 38 41 200 92 133 42 299 77 362 77 137 0 268 -87
257 -170 -5 -30 -35 -39 -43 -12 -8 24 -53 73 -86 93 -101 63 -274 51 -542
-38 -69 -23 -109 -41 -112 -52 -10 -36 -72 -326 -121 -566 -19 -93 -41 -192
-49 -220 l-15 -50 27 33 c51 63 123 131 145 138 26 8 80 63 82 84 1 8 19 100
40 205 20 104 38 211 39 237 0 25 5 44 10 41 5 -4 6 10 2 32 -7 34 -5 37 12
33 10 -3 48 1 83 8 84 18 151 17 195 -1 25 -10 41 -12 53 -5 14 8 13 9 -6 10
-12 0 -24 4 -27 9 -10 16 -153 34 -161 21 -4 -6 -18 -10 -33 -10 -31 -1 -111
-21 -129 -33 -8 -5 -12 -29 -11 -65 1 -31 -4 -67 -10 -79 -7 -12 -12 -36 -12
-54 0 -27 -3 -31 -21 -26 -16 4 -18 3 -9 -8 6 -7 7 -21 3 -30 -4 -13 -3 -16 5
-11 30 18 -6 -105 -47 -163 -20 -27 -21 -33 -8 -28 10 4 17 2 17 -4 0 -7 -10
-9 -23 -6 -12 4 -29 2 -37 -3 -11 -7 -8 -10 15 -11 17 -1 33 -1 37 0 5 0 6 -7
4 -17 -9 -38 -19 -62 -26 -62 -4 0 -10 -8 -12 -18 -3 -10 -23 -27 -44 -37 -21
-10 -44 -25 -50 -33 -16 -22 -44 -24 -44 -4 0 30 21 93 29 88 4 -3 5 8 3 25
-2 16 1 36 8 43 8 11 8 20 1 34 -8 15 -7 23 4 32 8 7 17 27 21 45 5 29 10 33
33 33 30 -1 71 18 71 32 0 14 -12 12 -38 -6 -18 -12 -26 -13 -37 -4 -8 7 -12
16 -10 21 3 4 6 24 7 43 1 19 4 33 8 31 3 -2 6 4 6 13 -2 41 17 142 26 142 6
0 8 14 5 33 -3 17 -2 41 3 52 5 11 9 16 9 12 1 -5 8 -2 16 5 39 36 114 74 160
83 l30 5 -28 -13 c-15 -7 -25 -16 -21 -20 3 -3 -5 -9 -19 -12 -17 -5 -25 -13
-24 -26 1 -10 2 -19 4 -19 1 0 19 15 39 32 20 18 42 33 48 33 6 0 29 7 52 14
31 10 46 11 62 2 26 -14 89 -14 97 -1 4 7 -3 9 -22 4 -27 -6 -27 -6 -8 10 14
12 16 16 5 15 -61 -6 -65 5 -6 15 81 15 158 6 219 -26 40 -20 84 -65 79 -80
-1 -5 2 -8 8 -8 5 0 7 -6 4 -13 -3 -10 4 -14 25 -14 17 0 33 7 35 14 6 15 26
9 26 -8 0 -6 -4 -7 -10 -4 -6 3 -7 -1 -4 -9 4 -10 -6 -27 -24 -46 -17 -16 -26
-30 -19 -30 6 0 0 -11 -13 -25 -29 -31 -18 -32 22 -4 16 12 26 24 20 28 -5 3
-1 14 9 24 17 18 17 18 15 -15 -2 -18 -4 -48 -5 -66 0 -18 -5 -31 -9 -28 -5 3
-8 -25 -7 -62 2 -37 1 -70 -2 -74 -2 -4 -13 2 -23 12 -33 33 -131 19 -178 -26
-6 -7 -21 -16 -32 -19 -11 -3 -20 -11 -20 -16 0 -5 -6 -9 -14 -9 -11 0 -10 8
5 37 10 20 23 41 29 47 17 17 11 29 -7 15 -15 -12 -16 -12 -9 6 5 11 10 32 12
48 2 15 6 39 8 55 2 15 5 34 7 42 2 9 -2 14 -9 12 -10 -2 -12 7 -9 33 3 19 1
35 -4 35 -5 0 -9 7 -9 15 0 8 -7 15 -16 15 -11 0 -14 -5 -9 -17 30 -73 26
-189 -9 -292 -23 -67 -71 -161 -81 -161 -6 0 6 31 21 55 26 42 56 164 61 252
6 91 6 92 -24 121 -36 37 -99 47 -197 33 -37 -5 -70 -11 -71 -13 -2 -2 -29
-143 -60 -313 -31 -171 -59 -321 -62 -334 -6 -23 -4 -23 32 -17 90 17 168 70
327 222 151 145 261 203 298 159 16 -20 5 -91 -21 -134 -11 -18 -18 -35 -15
-38 2 -3 19 19 36 49 25 42 30 47 25 23 -7 -34 -29 -64 -126 -180 -61 -72 -93
-103 -209 -204 -21 -18 -29 -31 -20 -31 8 0 32 16 53 35 21 19 41 35 45 35 4
0 16 14 27 30 11 16 24 30 28 30 5 0 33 25 62 56 l54 57 21 -34 c12 -19 19
-25 15 -14 -11 29 -13 85 -3 85 5 0 14 11 20 25 18 39 31 30 23 -17 -4 -23 -7
-59 -7 -80 1 -21 -2 -38 -6 -38 -4 0 -8 -21 -9 -46 -1 -41 5 -56 48 -120 27
-40 49 -77 49 -81 0 -4 12 -21 25 -36 29 -32 25 -33 221 29 l111 34 7 73 c25
276 26 303 14 357 -6 30 -12 60 -13 65 0 6 -6 9 -13 7 -7 -1 -12 5 -12 13 0 8
-5 15 -10 15 -12 0 4 -35 20 -45 6 -3 10 -14 10 -23 0 -12 -3 -13 -12 -4 -7 7
-19 12 -27 12 -12 0 -11 -5 5 -18 12 -9 27 -27 33 -39 14 -27 15 -66 1 -58 -6
3 -7 -1 -4 -9 4 -10 1 -16 -7 -16 -11 0 -11 -2 -1 -8 11 -7 12 -63 3 -180 -1
-6 -7 -11 -13 -10 -8 2 -12 -6 -11 -19 2 -13 -2 -23 -8 -23 -7 0 -9 11 -7 25
3 14 1 25 -3 25 -5 0 -9 7 -9 15 0 8 -5 15 -11 15 -5 0 -7 -6 -3 -12 4 -7 3
-9 -1 -5 -9 8 -8 86 1 122 4 15 3 17 -5 6 -7 -12 -10 -10 -14 10 -2 13 -3 -6
0 -43 4 -61 2 -67 -13 -61 -14 5 -16 16 -11 67 3 34 12 65 19 71 9 6 15 30 15
64 0 34 6 57 14 62 12 7 12 9 0 9 -8 0 -11 6 -7 16 3 8 2 12 -4 9 -6 -3 -10 1
-10 9 0 8 5 18 10 21 6 3 10 18 10 33 0 25 1 25 14 6 8 -10 17 -16 21 -12 9 9
-25 59 -36 52 -5 -3 -9 15 -9 40 0 25 5 48 10 51 6 3 10 0 10 -7 0 -7 11 -33
25 -58 28 -50 105 -209 105 -216 0 -2 34 -74 75 -160 42 -85 80 -166 85 -179
10 -25 38 -33 55 -16 6 6 35 17 65 25 30 8 119 34 197 58 l142 42 6 41 c3 22
10 63 15 90 9 44 30 168 47 275 6 38 26 60 54 60 15 0 139 -135 224 -245 65
-84 41 -88 222 27 89 57 170 109 180 115 44 30 93 61 163 103 41 24 81 50 89
58 13 13 19 9 45 -24 36 -44 88 -104 195 -223 125 -138 122 -136 132 -120 5 8
9 186 9 396 l0 381 62 41 c34 22 65 38 68 36 4 -3 -2 -32 -12 -65 l-20 -60 72
-80 c68 -75 100 -97 100 -67 1 12 49 49 235 176 61 41 115 80 121 85 6 6 51
38 99 71 47 33 117 83 155 110 37 28 78 57 91 65 12 8 50 35 83 60 34 25 86
62 116 82 103 70 102 69 82 99 -51 78 -137 179 -151 179 -9 0 -48 -12 -86 -26
-39 -14 -92 -32 -120 -41 -27 -8 -65 -21 -83 -29 -47 -20 -65 -19 -53 5 8 15
6 25 -11 46 -11 15 -43 60 -69 101 -27 41 -51 74 -55 74 -11 0 -148 -32 -199
-47 -27 -8 -72 -21 -100 -28 -27 -8 -116 -32 -197 -54 -156 -43 -173 -47 -163
-31 6 9 -4 96 -26 235 -6 39 -11 77 -10 85 0 8 -2 40 -5 70 -6 51 -10 59 -77
127 -39 40 -75 73 -81 73 -6 0 -41 -62 -77 -137z m120 -256 c15 -136 32 -252
37 -256 10 -10 132 20 467 114 132 36 245 65 254 63 11 -2 9 -13 -12 -53 -54
-101 -70 -130 -76 -135 -3 -3 -16 -27 -30 -55 -13 -27 -27 -51 -31 -53 -5 -2
-8 -8 -8 -14 0 -6 -14 -33 -31 -60 -16 -28 -28 -53 -25 -55 3 -3 21 7 39 23
19 16 48 40 65 54 38 30 41 43 7 30 -14 -5 -25 -8 -25 -5 0 13 35 75 42 75 5
0 6 5 3 10 -3 6 -1 10 4 10 6 0 11 9 11 19 0 10 7 22 15 25 9 3 15 11 14 18
-3 16 22 68 32 68 4 0 10 13 14 30 4 16 11 32 16 35 5 4 9 15 9 26 0 22 25 26
34 4 3 -8 -3 -19 -13 -25 -11 -5 -24 -23 -29 -39 -9 -26 -8 -29 8 -28 10 0 16
7 13 13 -6 15 14 54 27 54 6 0 10 -7 10 -16 0 -8 5 -12 10 -9 6 3 10 -3 10
-14 0 -10 3 -21 8 -23 4 -1 19 -21 34 -43 36 -52 29 -82 -19 -91 -30 -6 -38
-3 -64 25 -16 18 -33 30 -38 26 -6 -3 -15 3 -21 12 -11 17 -11 17 -6 1 3 -11
0 -18 -9 -18 -7 0 -17 -5 -20 -10 -4 -7 3 -8 20 -4 20 5 32 1 51 -17 13 -12
24 -28 24 -35 0 -13 -37 -26 -42 -14 -5 12 -58 21 -58 10 0 -6 5 -8 10 -5 6 3
10 2 10 -3 0 -5 -13 -15 -30 -22 -33 -14 -32 -12 -24 -35 4 -10 9 -12 13 -6 7
10 329 123 491 171 89 26 96 27 113 12 34 -30 107 -134 107 -150 0 -10 -16
-28 -36 -42 -19 -14 -41 -30 -47 -36 -7 -6 -25 -19 -40 -29 -24 -15 -30 -16
-37 -4 -7 11 -10 10 -16 -4 -3 -9 -44 -45 -90 -78 -49 -35 -81 -65 -78 -71 4
-7 2 -8 -4 -4 -15 9 -312 -193 -384 -261 -31 -29 -59 -53 -61 -53 -3 0 1 13 9
28 23 48 28 89 10 89 -8 0 -19 -12 -24 -26 -6 -14 -17 -47 -27 -73 -12 -36
-28 -56 -66 -83 -53 -38 -105 -63 -94 -45 3 6 1 10 -4 10 -6 0 -31 21 -56 48
-37 38 -44 52 -39 72 3 14 10 63 15 110 10 100 29 162 99 315 32 70 44 105 36
105 -3 0 -25 -15 -49 -32 -24 -18 -63 -46 -86 -63 -23 -16 -52 -38 -64 -48
-12 -10 -68 -53 -124 -94 l-102 -76 44 -62 c81 -117 76 -82 73 -499 -2 -297
-6 -372 -15 -364 -25 20 -74 118 -71 140 2 17 7 12 26 -25 13 -26 25 -47 28
-47 2 0 4 141 4 313 l0 313 -61 92 c-34 51 -63 91 -65 89 -2 -2 1 -28 5 -59 5
-30 12 -131 16 -224 7 -202 23 -371 36 -396 10 -19 2 -68 -12 -68 -17 0 -154
160 -289 336 -92 121 -92 121 -132 95 -18 -11 -44 -30 -58 -43 -14 -13 -50
-43 -80 -68 -30 -25 -57 -47 -60 -50 -11 -12 -158 -129 -215 -170 -44 -33 -69
-44 -95 -45 l-36 0 61 -72 c33 -40 65 -73 71 -73 6 0 28 11 48 25 20 14 39 25
41 25 3 0 38 23 79 50 41 28 77 50 81 50 10 0 178 102 208 127 17 13 23 23 14
23 -8 0 -22 -9 -32 -20 -10 -11 -23 -20 -29 -20 -6 0 -28 -5 -49 -11 -28 -7
-37 -15 -33 -25 3 -8 2 -12 -4 -9 -5 3 -18 -2 -29 -12 -11 -9 -27 -18 -36 -19
-9 -1 -25 -10 -35 -19 -10 -9 -24 -14 -29 -10 -6 3 -11 1 -11 -5 0 -6 -5 -8
-11 -4 -8 4 -9 -1 -5 -17 6 -24 6 -24 -5 -2 -14 26 -36 37 -36 17 0 -8 4 -14
8 -14 4 0 10 -7 13 -16 5 -12 1 -14 -16 -8 -20 6 -21 5 -9 -10 13 -16 7 -19
-25 -15 -4 0 -10 -3 -13 -8 -10 -15 -63 -53 -73 -53 -6 0 0 9 13 20 13 10 18
19 12 20 -7 0 -13 -4 -13 -9 0 -5 -6 -8 -13 -7 -18 2 -77 46 -77 57 0 11 38
45 46 41 2 -1 12 4 20 13 9 8 20 13 25 10 5 -4 9 1 9 10 0 9 4 14 8 11 5 -3
18 5 30 17 42 46 172 151 172 140 0 -4 4 -3 8 3 4 6 24 20 44 31 21 11 35 23
31 27 -3 3 -2 6 4 6 21 0 88 33 75 37 -7 3 -19 -1 -28 -7 -8 -7 -17 -10 -21
-7 -7 7 63 77 77 77 15 0 41 -31 34 -41 -3 -5 0 -8 8 -7 7 2 12 -5 12 -14 -1
-10 2 -16 6 -13 9 5 70 -66 90 -105 7 -14 9 -22 5 -18 -4 4 -20 -1 -34 -11
-14 -9 -53 -32 -85 -50 -33 -18 -96 -57 -140 -86 -45 -29 -112 -71 -151 -94
-38 -23 -97 -58 -129 -78 -55 -33 -60 -35 -72 -18 -7 9 -26 31 -41 49 -15 17
-44 51 -63 76 -19 25 -37 47 -40 50 -28 25 -140 185 -132 188 6 2 1 15 -13 30
-13 15 -32 38 -43 52 -18 22 -22 23 -35 10 -14 -15 -147 -236 -147 -244 0 -2
11 1 24 7 13 6 21 17 19 24 -4 9 0 11 11 7 12 -5 15 -2 10 10 -5 14 27 72 49
87 5 4 6 12 2 19 -5 9 -4 11 3 6 7 -4 12 -1 12 6 0 25 30 57 46 51 12 -4 13
-8 3 -14 -7 -4 -17 -5 -23 -2 -5 3 -6 1 -2 -6 4 -6 12 -9 17 -6 12 8 11 -1 -2
-28 -10 -21 -10 -21 5 -3 15 18 16 19 16 2 0 -10 11 -32 25 -48 29 -34 28 -52
-1 -56 -14 -1 -24 9 -38 39 -10 22 -21 38 -24 35 -2 -3 1 -12 8 -21 7 -8 10
-26 8 -40 -3 -14 -2 -25 2 -25 4 0 3 -24 -2 -52 -5 -29 -13 -80 -19 -113 -5
-33 -13 -85 -18 -115 -6 -30 -13 -79 -17 -108 -5 -37 -13 -56 -26 -63 -25 -13
-29 -10 -77 68 -23 38 -52 81 -65 96 l-23 28 -89 -21 c-49 -11 -119 -30 -155
-40 l-66 -20 53 -102 c58 -112 60 -118 41 -118 -9 0 -105 171 -112 200 -4 15
-241 480 -245 480 -3 0 -6 -10 -7 -23 -4 -69 -36 -382 -43 -437 -13 -86 -12
-96 3 -112 6 -7 21 -29 31 -48 11 -19 22 -37 26 -40 12 -10 39 -74 34 -82 -7
-12 -24 -10 -24 2 0 19 -100 160 -113 160 -7 0 -60 -12 -118 -27 l-105 -26 55
-84 c52 -79 72 -96 86 -73 3 6 14 10 23 10 9 1 31 7 47 15 17 9 21 13 8 9 -12
-2 -24 0 -28 6 -5 8 -14 5 -26 -9 -11 -12 -26 -21 -33 -21 -12 0 -53 38 -49
46 4 9 -10 43 -17 39 -4 -2 -7 9 -8 25 -1 25 4 31 26 35 15 3 48 10 74 16 51
11 88 0 88 -27 0 -8 7 -17 15 -20 8 -4 15 -11 15 -16 0 -5 9 -21 20 -35 11
-14 20 -29 20 -33 0 -8 -179 -70 -203 -70 -8 0 -39 35 -67 78 -29 42 -61 86
-71 97 -19 22 -21 -4 21 310 11 82 22 180 39 345 6 52 13 163 17 245 l7 151
131 38 c198 59 192 59 249 -21 27 -38 85 -123 130 -190 45 -67 85 -122 90
-123 4 0 7 25 7 55 0 30 4 98 10 152 5 54 12 132 15 174 l7 77 36 10 c20 5 91
26 156 46 65 20 121 34 123 32 3 -2 -2 -62 -11 -133 -8 -70 -25 -209 -36 -308
-11 -99 -24 -218 -30 -265 -36 -307 -35 -292 -9 -333 28 -42 39 -46 40 -14 0
12 2 29 4 37 3 17 49 114 68 145 30 50 29 49 43 31 7 -10 10 -25 7 -34 -4 -12
-3 -14 4 -7 15 14 4 75 -13 75 -8 0 -17 -7 -20 -15 -4 -8 -10 -12 -15 -9 -5 3
-9 1 -9 -5 0 -6 -13 -33 -30 -61 -16 -28 -30 -60 -30 -70 0 -11 -4 -20 -9 -20
-5 0 -11 -10 -14 -22 -4 -12 -9 -19 -13 -15 -9 9 -5 130 4 137 4 3 8 23 8 45
1 22 6 72 12 110 6 39 16 117 22 175 26 263 61 563 66 571 9 15 22 1 55 -61
17 -33 36 -60 41 -60 6 0 8 -6 5 -12 -2 -7 -7 -24 -11 -38 -7 -24 -6 -24 8 -6
9 11 18 17 21 14 3 -3 -6 -17 -20 -32 -14 -15 -25 -29 -25 -32 0 -3 -18 -26
-39 -50 -56 -64 -70 -100 -70 -175 0 -36 -2 -80 -5 -99 -14 -84 -15 -121 -3
-113 9 5 9 3 1 -8 -12 -15 -27 -69 -20 -69 2 0 30 43 61 95 38 64 62 95 75 95
10 0 20 7 24 15 3 8 14 15 23 15 10 0 27 6 38 14 28 19 121 46 164 47 l36 1
-35 12 c-29 10 -36 18 -38 44 -2 21 4 43 18 63 29 40 18 48 -21 15 -43 -36
-152 -90 -222 -111 -61 -18 -79 -41 -24 -32 75 13 97 20 97 28 0 5 7 9 16 9 8
0 36 14 60 31 25 17 48 28 51 25 4 -3 1 -6 -5 -6 -9 0 -9 -6 0 -25 10 -21 9
-29 -5 -43 -14 -13 -17 -14 -17 -2 -1 11 -4 10 -15 -4 -8 -11 -21 -16 -30 -13
-9 4 -15 1 -15 -8 0 -14 -19 -20 -44 -16 -5 1 -12 -3 -16 -8 -3 -6 -15 -12
-26 -14 -11 -1 -29 -12 -41 -24 -11 -11 -29 -26 -39 -32 -15 -9 -16 -12 -5
-20 11 -7 9 -13 -9 -31 -29 -29 -34 -21 -15 23 8 20 11 38 6 41 -4 3 -4 27 0
53 4 26 5 64 2 85 -6 43 10 69 147 233 50 60 117 142 148 182 l57 72 185 51
c102 29 212 60 245 70 l60 18 42 83 c90 179 279 574 298 624 10 26 18 -20 54
-338z m41 282 c36 -38 60 -89 60 -131 0 -39 -17 -23 -34 30 -18 58 -40 92 -60
92 -6 -1 0 -10 13 -20 17 -15 22 -26 17 -44 -7 -27 2 -59 13 -51 9 5 52 -81
57 -115 2 -14 9 -53 16 -88 9 -48 9 -65 0 -74 -18 -18 -79 47 -85 89 -3 17 -8
36 -11 42 -4 5 -7 26 -8 46 -1 20 -5 38 -10 41 -12 7 -10 92 2 96 7 2 5 15 -5
34 -21 43 -30 94 -16 94 6 0 29 -18 51 -41z m30 -394 c8 -15 22 -25 36 -25 24
0 37 -29 23 -51 -5 -8 -3 -17 4 -21 7 -4 -9 -8 -35 -8 -27 0 -48 4 -48 9 0 5
-3 16 -6 25 -4 10 -1 16 9 16 8 0 17 -5 19 -12 3 -7 12 -9 23 -4 16 6 14 9
-15 25 -20 10 -37 29 -41 44 -9 35 13 36 31 2z m365 -345 c-3 -5 -12 -10 -18
-10 -7 0 -6 4 3 10 19 12 23 12 15 0z m-23 -46 c-5 -26 -12 -31 -21 -15 -5 7
-14 10 -21 6 -8 -5 -7 -12 6 -26 15 -16 15 -24 4 -64 -7 -25 -16 -48 -21 -50
-4 -3 -4 9 2 27 13 48 11 67 -5 36 -8 -15 -13 -43 -10 -62 4 -37 -10 -86 -24
-86 -5 0 -23 23 -40 50 -17 28 -37 50 -44 49 -10 0 -10 -2 0 -6 6 -2 12 -11
12 -19 0 -8 10 -25 23 -40 26 -30 45 -73 24 -56 -7 6 -18 7 -26 3 -20 -13 13
-40 41 -34 33 8 11 -11 -32 -27 -19 -8 -49 -24 -66 -37 -28 -21 -44 -22 -44
-1 0 4 7 8 15 8 8 0 15 5 15 10 0 6 -4 10 -8 10 -5 0 -18 18 -31 40 -14 25
-29 39 -38 38 -9 -2 -18 3 -20 10 -3 8 1 10 11 6 14 -5 15 -2 6 20 -5 15 -6
25 -1 21 5 -3 19 7 30 21 13 17 26 24 37 20 12 -5 15 -2 10 9 -3 9 -2 13 4 10
6 -3 10 -1 10 4 0 6 7 11 15 11 8 0 15 5 15 11 0 5 4 8 9 5 4 -3 26 15 47 39
22 24 43 45 47 45 4 0 18 9 29 20 26 24 44 21 40 -6z m-324 -426 c25 5 32 -56
38 -312 6 -228 5 -259 -8 -246 -32 34 -59 219 -57 400 0 69 -2 137 -6 152 -4
16 -4 36 0 45 7 15 9 12 15 -12 3 -16 12 -29 18 -27z m-1718 -128 c0 -5 -2
-10 -4 -10 -3 0 -8 5 -11 10 -3 6 -1 10 4 10 6 0 11 -4 11 -10z m-1060 -130
c0 -5 -6 -11 -12 -13 -10 -4 -10 -6 0 -6 8 -1 16 8 19 19 7 27 31 25 43 -2 8
-21 9 -21 9 -3 1 18 2 18 17 3 17 -17 29 -94 16 -102 -4 -2 -21 15 -37 39 -31
47 -45 56 -45 29 0 -8 4 -13 8 -10 4 2 18 -15 31 -40 13 -24 22 -45 20 -47
-47 -27 -71 -38 -66 -30 4 6 -2 13 -13 16 -14 3 -20 -1 -22 -16 -2 -14 -12
-22 -30 -24 -16 -2 -28 1 -28 7 0 5 -5 10 -11 10 -6 0 -2 -12 9 -27 30 -45 33
-62 17 -109 -8 -25 -15 -58 -15 -74 0 -17 -4 -30 -10 -30 -5 0 -10 9 -10 19 0
25 -16 36 -24 16 -3 -8 -1 -15 4 -15 6 0 10 -7 10 -15 0 -8 5 -15 10 -15 6 0
10 -18 10 -41 0 -24 -4 -38 -10 -34 -6 3 -7 -1 -4 -10 7 -18 -52 -75 -78 -75
-10 0 -23 -6 -30 -13 -7 -8 -21 -12 -31 -9 -15 4 -16 7 -5 13 10 7 11 9 0 9
-7 0 -11 4 -8 9 9 14 46 199 52 256 3 28 11 79 19 115 7 36 19 97 26 137 7 40
16 70 20 67 5 -3 15 -1 23 3 18 10 126 4 126 -7z m1585 -30 c3 -5 1 -10 -4
-10 -6 0 -11 5 -11 10 0 6 2 10 4 10 3 0 8 -4 11 -10z m-1504 -197 c-6 -32
-27 -89 -46 -128 -35 -70 -108 -165 -127 -165 -7 0 -7 4 -1 13 6 6 23 80 38
164 l28 151 41 11 c23 6 48 15 56 21 21 13 23 1 11 -67z m646 -45 c-3 -7 -5
-2 -5 12 0 14 2 19 5 13 2 -7 2 -19 0 -25z m-1160 -10 c-3 -7 -5 -2 -5 12 0
14 2 19 5 13 2 -7 2 -19 0 -25z m1734 -198 c10 -6 19 -17 19 -25 0 -7 4 -15 8
-17 5 -1 25 -25 44 -53 27 -37 34 -55 27 -70 -4 -11 -8 -17 -8 -14 -1 4 -31
-1 -68 -11 -38 -10 -69 -14 -71 -9 -2 5 -25 9 -50 9 -34 0 -43 -3 -32 -10 8
-5 29 -10 45 -10 l30 -1 -34 -14 c-18 -8 -44 -15 -58 -15 -13 0 -21 -4 -18
-10 3 -5 -1 -10 -9 -10 -10 0 -17 15 -22 45 -3 25 -10 43 -14 40 -5 -3 -11 13
-15 35 -4 22 -11 38 -16 35 -5 -4 -6 0 -3 8 3 8 1 18 -5 22 -6 3 -11 10 -11
14 0 10 69 31 106 32 18 0 23 3 14 7 -8 3 14 11 50 18 36 6 66 12 68 13 2 0
12 -4 23 -9z"/>
<path d="M4040 3404 c-11 -25 -20 -50 -20 -55 0 -5 -4 -17 -8 -27 -30 -59 -94
-188 -163 -324 -44 -86 -82 -168 -85 -182 -5 -27 -22 -53 -62 -92 -13 -13 -21
-28 -17 -33 9 -16 25 -13 25 3 0 8 8 21 18 28 9 7 24 27 32 43 8 17 23 38 35
47 18 16 18 18 3 18 -20 0 -24 15 -7 26 6 3 15 1 19 -5 5 -9 16 -7 41 8 31 19
32 21 9 19 -14 -2 -28 -7 -31 -12 -4 -4 -6 4 -6 18 0 15 4 23 10 19 5 -3 7 0
5 8 -3 8 17 57 43 110 27 54 49 102 49 107 0 6 4 12 9 14 10 4 81 150 81 169
1 14 29 70 30 58 0 -4 -7 -26 -15 -49 -8 -23 -12 -46 -9 -52 3 -5 -2 -15 -11
-22 -10 -7 -17 -25 -17 -39 0 -15 -4 -24 -9 -21 -5 3 -9 -1 -9 -9 0 -8 -7 -20
-15 -27 -18 -15 -20 -34 -3 -24 8 5 9 2 5 -9 -8 -21 0 -22 20 -2 8 9 13 24 10
35 -3 11 1 21 11 25 8 3 12 8 9 11 -3 3 4 24 15 45 11 22 22 38 24 36 2 -2 7
-54 10 -115 5 -111 5 -112 -21 -138 -27 -27 -21 -29 29 -9 16 7 17 5 11 -15
-5 -15 -4 -20 4 -16 6 4 11 2 11 -3 0 -6 -4 -11 -10 -11 -15 0 1 -32 33 -65
16 -16 27 -25 23 -19 -8 15 16 24 45 17 15 -4 20 -3 15 5 -4 7 -1 12 6 13 44
3 192 42 196 51 2 5 14 8 26 8 26 0 116 29 130 41 5 4 -15 2 -45 -5 -112 -28
-194 -51 -199 -57 -5 -5 -141 -38 -174 -42 -17 -2 -21 8 -32 77 -14 85 -44
368 -46 429 -1 20 -3 37 -5 37 -2 0 -13 -21 -23 -46z"/>
<path d="M4030 3107 c0 -10 -6 -28 -14 -40 -19 -31 -29 -67 -18 -67 17 0 55
101 43 113 -8 8 -11 6 -11 -6z"/>
<path d="M4011 3094 c0 -11 3 -14 6 -6 3 7 2 16 -1 19 -3 4 -6 -2 -5 -13z"/>
<path d="M3940 3075 c0 -8 -4 -15 -8 -15 -5 0 -14 -11 -20 -25 -8 -17 -8 -25
-1 -25 6 0 7 -6 4 -12 -4 -7 0 -4 9 7 8 11 20 26 26 33 6 6 7 12 3 12 -4 0 -2
5 5 12 16 16 15 28 -3 28 -8 0 -15 -7 -15 -15z"/>
<path d="M4755 3060 c-18 -8 -18 -9 5 -10 15 -1 19 -4 10 -7 -8 -3 -23 -14
-34 -25 -11 -10 -32 -23 -47 -30 -15 -7 -26 -15 -24 -18 1 -3 -3 -11 -11 -17
-8 -8 -15 -9 -19 -3 -3 6 -12 10 -18 10 -8 0 -7 -3 2 -9 10 -7 4 -16 -29 -40
-24 -17 -51 -31 -62 -31 -10 0 -18 -5 -18 -11 0 -5 5 -7 12 -3 7 4 8 3 4 -4
-9 -16 -11 -15 -32 6 -17 16 -18 16 -11 -1 5 -14 -1 -26 -22 -45 -61 -57 -104
-76 -132 -62 -13 7 -19 7 -19 0 0 -5 -14 -10 -30 -10 -27 0 -130 -43 -130 -54
0 -3 15 0 33 5 79 25 95 29 139 33 58 6 88 21 191 100 21 16 40 26 44 22 8 -7
-4 -17 -113 -92 -52 -36 -94 -57 -117 -59 -91 -9 -215 -54 -430 -157 -93 -44
-186 -82 -208 -85 -63 -9 -70 4 -68 121 1 97 2 101 31 131 34 34 72 85 64 85
-3 0 -97 -25 -208 -56 -112 -31 -213 -58 -225 -61 -12 -3 -43 -33 -70 -66 -26
-34 -98 -119 -159 -188 -137 -155 -154 -194 -82 -182 79 12 217 101 354 229
109 100 200 166 223 162 13 -3 17 -20 19 -81 2 -45 -1 -77 -7 -77 -5 0 -14
-17 -21 -37 -49 -166 -80 -295 -80 -330 0 -12 -5 -25 -10 -28 -14 -9 -95 62
-95 83 0 9 -7 17 -15 17 -24 0 -73 43 -64 56 4 8 3 9 -4 5 -7 -4 -12 -3 -12 3
0 5 5 13 10 16 6 4 8 10 5 15 -3 4 4 19 15 31 l19 24 2 -35 1 -35 7 35 c11 55
51 125 98 175 7 7 9 15 6 19 -4 3 -1 6 5 6 6 0 23 10 39 23 40 33 59 29 55
-11 -1 -23 2 -32 13 -32 10 0 15 10 15 34 0 86 -32 87 -137 4 -103 -81 -145
-118 -136 -118 5 0 31 20 60 45 28 25 54 45 58 45 3 0 -26 -39 -65 -86 -39
-47 -79 -103 -90 -124 l-19 -38 42 -38 c102 -94 198 -176 201 -173 2 2 11 27
20 55 12 36 24 55 43 63 14 6 23 15 19 18 -3 4 -11 2 -18 -5 -8 -8 -15 -7 -26
5 -12 12 -13 16 -2 23 7 4 10 13 6 19 -6 9 79 308 91 321 3 3 2 -20 -2 -51 -5
-44 -4 -58 9 -68 23 -20 95 -6 150 29 26 17 50 30 53 30 4 0 15 8 26 18 11 9
17 11 13 5 -9 -16 -4 -16 28 -2 14 7 23 16 20 20 -3 5 13 12 36 15 22 4 40 12
40 19 0 7 6 13 13 12 6 0 21 1 32 2 17 1 18 3 5 11 -12 8 -9 10 11 10 15 0 32
7 40 16 7 9 22 14 36 11 13 -2 26 0 30 6 3 6 1 7 -5 3 -7 -4 -12 -2 -12 3 0 6
8 11 18 11 9 0 47 11 85 24 37 13 67 20 67 16 0 -14 -42 -40 -53 -33 -6 3 -7
1 -4 -4 4 -6 -29 -35 -73 -64 -73 -50 -98 -74 -86 -86 5 -5 12 0 146 99 41 30
109 80 151 109 123 87 200 152 195 165 -2 6 26 32 63 58 38 25 79 55 92 67 14
12 25 16 27 9 5 -13 52 48 52 67 0 15 -15 16 -45 3z m-1134 -332 c-18 -16 -59
-44 -91 -62 -80 -43 -112 -68 -208 -163 -85 -85 -150 -133 -237 -176 -101 -51
-132 -44 -79 18 17 19 28 26 31 18 6 -16 33 -17 33 -2 0 5 -4 8 -9 4 -25 -15
-17 16 12 47 17 19 41 47 52 62 11 16 35 44 53 64 17 21 45 55 61 77 24 32 40
43 88 57 32 10 72 20 89 23 17 2 46 11 65 19 19 7 39 12 45 9 6 -2 35 7 65 21
30 13 56 22 59 19 2 -2 -10 -18 -29 -35z m-33 -60 c-2 -6 -10 -14 -16 -16 -7
-2 -10 2 -6 12 7 18 28 22 22 4z m82 -228 c0 -5 -4 -10 -10 -10 -5 0 -10 5
-10 10 0 6 5 10 10 10 6 0 10 -4 10 -10z"/>
<path d="M3475 2700 c-3 -5 1 -10 10 -10 9 0 13 5 10 10 -3 6 -8 10 -10 10 -2
0 -7 -4 -10 -10z"/>
<path d="M4605 3024 c-16 -7 -23 -14 -15 -14 10 -1 7 -5 -7 -12 -15 -7 -23
-20 -23 -35 0 -13 4 -22 10 -18 5 3 7 12 3 20 -3 9 1 15 10 15 8 0 20 7 27 15
7 8 34 18 61 21 27 4 52 11 55 16 8 13 -85 7 -121 -8z"/>
<path d="M4881 3004 c0 -11 3 -14 6 -6 3 7 2 16 -1 19 -3 4 -6 -2 -5 -13z"/>
<path d="M4920 3005 c0 -4 8 -18 19 -31 l19 -24 5 22 c4 12 5 23 4 24 -8 7
-47 14 -47 9z"/>
<path d="M3886 2983 c-6 -14 -5 -15 5 -6 7 7 10 15 7 18 -3 3 -9 -2 -12 -12z"/>
<path d="M4620 2976 c0 -2 7 -6 15 -10 8 -3 15 -1 15 4 0 6 -7 10 -15 10 -8 0
-15 -2 -15 -4z"/>
<path d="M4706 2938 c-45 -37 -51 -49 -127 -276 -56 -165 -97 -327 -86 -339
11 -11 228 153 251 189 36 58 -86 18 -143 -47 -17 -20 -30 -42 -28 -48 4 -14
-41 -52 -50 -43 -18 18 50 146 85 161 8 3 -1 -14 -19 -37 l-33 -43 45 41 c24
23 55 48 69 58 20 13 21 16 7 16 -10 0 -25 -7 -33 -15 -8 -8 -21 -12 -29 -9
-17 7 -10 25 8 20 7 -1 9 -1 5 1 -5 3 -8 12 -8 20 0 13 3 13 15 3 12 -10 21
-7 49 18 24 21 31 34 25 43 -6 10 -9 11 -9 2 0 -7 -5 -13 -12 -13 -6 0 -3 9 8
21 l18 20 8 -20 c10 -29 16 -26 10 4 -2 14 0 25 5 25 5 0 20 10 33 23 14 12
26 21 27 19 2 -1 17 5 34 14 17 8 37 13 45 10 9 -3 12 -1 9 4 -3 6 3 10 15 10
11 0 23 7 27 16 3 8 12 13 20 10 9 -4 11 -1 7 5 -5 8 3 10 24 7 19 -3 29 0 25
5 -4 6 3 8 15 5 15 -4 23 -1 27 12 5 17 61 50 84 50 6 0 20 5 31 10 11 6 29
15 40 20 11 6 27 10 35 10 8 0 15 -4 15 -10 0 -5 -8 -10 -18 -10 -10 0 -28 -9
-40 -20 -12 -11 -28 -20 -36 -20 -10 0 -13 -6 -9 -17 4 -10 2 -14 -5 -9 -12 7
-62 -38 -62 -57 0 -8 -3 -8 -9 1 -6 11 -14 8 -37 -12 -23 -20 -25 -25 -11 -26
9 0 17 6 17 13 0 8 3 8 9 -2 8 -12 21 -6 68 29 32 24 63 49 69 55 7 5 47 37
89 70 42 32 73 61 67 63 -20 6 -343 -112 -350 -129 -2 -4 -10 -5 -19 -2 -12 5
-14 3 -8 -6 5 -10 2 -11 -14 -6 -14 4 -21 2 -19 -5 2 -6 -34 -26 -78 -44 -123
-50 -244 -142 -244 -185 0 -11 -5 -23 -10 -26 -6 -4 -8 -9 -6 -13 2 -4 -2 -13
-10 -19 -22 -21 -28 5 -8 35 10 15 17 31 16 36 -2 5 4 24 13 43 9 19 19 49 22
68 3 19 9 33 13 30 4 -2 12 7 18 20 7 15 8 25 2 25 -6 0 -10 -7 -10 -17 0 -9
-3 -14 -6 -10 -8 8 37 137 47 137 13 0 11 -6 -11 -50 -11 -21 -16 -41 -12 -44
9 -6 89 151 81 158 -3 3 -22 -9 -43 -26z m9 -17 c-3 -6 -11 -11 -17 -11 -6 0
-6 6 2 15 14 17 26 13 15 -4z m-35 -299 c0 -4 -9 -13 -20 -20 -22 -13 -27 -3
-8 16 14 14 28 16 28 4z m40 -111 c0 -12 -20 -25 -27 -18 -7 7 6 27 18 27 5 0
9 -4 9 -9z m-56 -52 c-22 -24 -42 -10 -24 18 11 17 11 17 6 -2 -5 -19 -5 -19
12 1 9 12 19 18 21 12 1 -5 -5 -18 -15 -29z m-41 -13 c4 -11 1 -13 -10 -9 -12
5 -15 2 -10 -10 4 -11 2 -14 -9 -10 -13 5 -13 8 2 24 21 23 20 23 27 5z"/>
<path d="M3898 2953 c7 -3 16 -2 19 1 4 3 -2 6 -13 5 -11 0 -14 -3 -6 -6z"/>
<path d="M4528 2953 c7 -3 16 -2 19 1 4 3 -2 6 -13 5 -11 0 -14 -3 -6 -6z"/>
<path d="M5399 2947 c-8 -7 -36 -28 -64 -47 -27 -19 -54 -38 -60 -42 -11 -10
-159 -116 -192 -138 -12 -8 -67 -48 -122 -87 -55 -40 -107 -73 -115 -73 -9 0
-20 -9 -26 -20 -10 -19 -76 -73 -254 -210 -47 -36 -87 -69 -89 -75 -4 -13 81
-96 88 -85 6 9 -13 30 -47 54 -21 15 -21 15 11 46 l31 32 0 -26 c0 -13 -4 -28
-10 -31 -14 -9 -12 -27 3 -23 6 3 14 21 17 42 3 20 9 36 14 36 5 -1 17 11 27
27 10 15 19 24 19 20 0 -4 18 9 41 30 22 21 43 37 46 35 2 -2 13 7 24 19 15
17 22 20 31 11 9 -9 9 -15 0 -24 -16 -16 -15 -28 3 -28 9 0 12 6 8 17 -4 11
-3 14 5 9 18 -11 15 19 -3 34 -13 11 -10 15 22 33 21 11 49 30 63 43 60 56 81
74 88 74 12 2 96 60 86 60 -5 1 5 8 21 17 17 9 48 31 70 48 22 18 82 61 133
95 50 34 92 66 92 71 0 6 7 6 19 -1 28 -14 38 -12 17 3 -18 13 -18 14 -1 21
28 10 54 -3 61 -32 4 -15 10 -32 15 -37 4 -6 4 -17 -1 -25 -8 -12 -10 -11 -10
5 0 17 -2 17 -10 5 -17 -26 -12 -42 8 -31 59 35 59 36 16 98 -43 62 -55 70
-75 50z"/>
<path d="M3887 2934 c-14 -14 -7 -34 13 -34 11 0 20 7 20 16 0 8 -4 13 -9 10
-5 -4 -11 -1 -13 5 -2 5 -7 7 -11 3z"/>
<path d="M4450 2924 c-19 -7 -43 -13 -53 -13 -10 -1 -16 -5 -13 -10 3 -5 -8
-11 -24 -13 -17 -3 -30 -1 -30 3 0 4 -13 2 -30 -4 -16 -6 -30 -15 -30 -20 0
-4 -3 -6 -7 -4 -17 11 -263 -51 -263 -65 0 -4 6 -6 13 -4 6 2 35 10 62 17 28
6 55 15 60 18 6 3 19 6 30 7 54 4 100 15 122 29 13 9 28 13 33 10 6 -4 35 1
66 10 31 9 62 14 70 11 8 -3 11 0 7 10 -4 10 3 14 23 14 16 0 36 5 44 10 23
15 -37 11 -80 -6z"/>
<path d="M3971 2914 c0 -11 3 -14 6 -6 3 7 2 16 -1 19 -3 4 -6 -2 -5 -13z"/>
<path d="M4248 2823 c6 -2 18 -2 25 0 6 3 1 5 -13 5 -14 0 -19 -2 -12 -5z"/>
<path d="M5365 2800 c-4 -6 -16 -8 -28 -5 -17 5 -19 4 -7 -4 11 -8 12 -11 2
-11 -7 0 -10 -4 -7 -10 3 -5 0 -10 -8 -10 -8 0 -22 -9 -33 -21 -10 -12 -32
-28 -47 -36 -27 -14 -32 -33 -10 -40 14 -5 112 74 120 95 3 9 13 25 21 35 8 9
12 17 9 17 -3 0 -9 -5 -12 -10z"/>
<path d="M3958 2793 c6 -2 18 -2 25 0 6 3 1 5 -13 5 -14 0 -19 -2 -12 -5z"/>
<path d="M4188 2793 c7 -3 16 -2 19 1 4 3 -2 6 -13 5 -11 0 -14 -3 -6 -6z"/>
<path d="M5393 2775 c-21 -24 -15 -40 7 -20 20 18 26 35 13 35 -5 -1 -14 -7
-20 -15z"/>
<path d="M3880 2762 c-44 -21 -44 -21 -38 -27 3 -3 29 6 59 20 30 14 45 25 34
24 -11 0 -36 -8 -55 -17z"/>
<path d="M4109 2760 l-24 -20 28 11 c15 7 27 16 27 21 0 12 -5 10 -31 -12z"/>
<path d="M4194 2771 c7 -10 -17 -21 -45 -21 -10 0 -19 -4 -19 -10 0 -19 -35
-45 -78 -59 -23 -8 -48 -21 -54 -29 -9 -11 -3 -10 27 3 22 10 54 22 72 28 18
5 30 14 28 18 -3 4 15 18 40 30 41 20 61 49 34 49 -5 0 -8 -4 -5 -9z"/>
<path d="M4850 2739 c0 -5 5 -7 10 -4 6 3 10 8 10 11 0 2 -4 4 -10 4 -5 0 -10
-5 -10 -11z"/>
<path d="M4941 2739 c-13 -5 -22 -12 -19 -14 3 -3 20 1 39 9 37 17 19 21 -20
5z"/>
<path d="M4070 2720 c0 -5 7 -7 15 -4 8 4 15 8 15 10 0 2 -7 4 -15 4 -8 0 -15
-4 -15 -10z"/>
<path d="M4888 2713 c7 -3 16 -2 19 1 4 3 -2 6 -13 5 -11 0 -14 -3 -6 -6z"/>
<path d="M4978 2690 c-25 -17 -52 -37 -58 -45 -7 -8 -18 -15 -25 -15 -7 0 -15
-7 -19 -15 -3 -8 -2 -15 3 -15 7 0 119 85 146 111 18 18 -2 9 -47 -21z"/>
<path d="M3985 2685 c-34 -17 -43 -25 -28 -25 12 0 28 6 35 13 7 8 19 12 26 9
6 -2 12 1 12 6 0 6 8 13 18 15 12 3 13 5 2 6 -8 0 -37 -11 -65 -24z"/>
<path d="M4793 2696 c-13 -6 -23 -17 -23 -24 0 -10 7 -9 29 3 33 17 49 36 29
34 -7 -1 -23 -6 -35 -13z"/>
<path d="M3753 2693 c-7 -2 -13 -12 -13 -21 1 -15 2 -16 13 -1 7 9 19 18 27
22 13 5 13 5 0 5 -8 0 -21 -2 -27 -5z"/>
<path d="M3682 2631 c-12 -21 -25 -60 -28 -85 -7 -46 -7 -46 23 -46 17 0 48 7
69 16 63 25 225 107 230 116 7 11 -34 -7 -123 -54 -40 -21 -76 -38 -80 -37 -4
1 -21 -3 -36 -9 -47 -20 -62 -15 -65 17 -1 15 4 44 13 62 l14 34 1 -47 c0 -45
2 -48 26 -48 14 0 38 6 52 14 15 8 50 25 77 38 28 13 52 26 53 31 2 4 7 5 11
3 4 -3 13 -1 20 3 9 6 4 9 -13 9 -15 0 -29 -4 -32 -9 -7 -12 -89 -49 -109 -49
-9 0 -25 -4 -35 -10 -23 -13 -50 14 -32 32 16 16 15 58 -1 58 -7 0 -23 -18
-35 -39z"/>
<path d="M5185 2659 c-5 -6 -25 -19 -42 -30 -18 -10 -33 -24 -32 -31 0 -10 2
-10 6 0 2 6 8 10 13 7 4 -2 15 4 25 15 10 11 23 20 28 20 6 0 0 -12 -14 -27
l-24 -26 37 27 c23 17 35 33 31 42 -6 16 -14 17 -28 3z"/>
<path d="M4725 2590 c-26 -7 -23 -8 22 -9 31 -1 53 -6 56 -13 4 -10 6 -10 6 0
1 10 -44 36 -52 31 -1 -1 -15 -5 -32 -9z"/>
<path d="M2900 2580 c0 -5 5 -10 11 -10 5 0 7 5 4 10 -3 6 -8 10 -11 10 -2 0
-4 -4 -4 -10z"/>
<path d="M2690 2543 c-63 -20 -116 -37 -117 -37 -7 -5 -43 -382 -43 -447 l0
-77 -44 -26 c-25 -14 -51 -32 -58 -39 -7 -7 -27 -22 -45 -32 -18 -10 -30 -22
-28 -25 2 -4 -20 -6 -50 -6 -30 1 -54 -1 -53 -5 35 -75 161 -319 166 -319 27
0 261 76 274 89 16 15 36 102 52 231 3 25 14 113 25 195 11 83 27 220 36 305
8 85 18 172 21 193 7 45 12 45 -136 0z m95 -3 c-3 -5 -2 -10 3 -10 5 0 10 -11
10 -25 0 -14 -5 -22 -11 -18 -6 4 -6 0 0 -12 6 -10 8 -27 5 -37 -4 -16 -12
-19 -38 -16 -22 3 -35 -1 -39 -10 -3 -7 0 -10 6 -7 5 4 20 4 33 1 22 -5 24
-22 17 -112 -1 -6 -14 -31 -31 -55 -16 -24 -30 -48 -30 -54 0 -5 5 -3 10 5 5
8 10 11 10 6 0 -5 9 -1 19 8 11 10 21 13 25 7 4 -5 2 -13 -4 -16 -6 -4 -8 -15
-5 -25 3 -11 -1 -31 -11 -44 -9 -14 -14 -32 -11 -40 3 -8 0 -42 -8 -77 -7 -35
-10 -67 -6 -72 4 -4 5 -21 3 -38 -3 -17 -7 -26 -11 -21 -3 6 -6 -17 -6 -51 l0
-61 -65 -2 c-79 -3 -120 -10 -134 -24 -7 -7 -3 -10 11 -10 12 0 24 4 27 9 4 5
38 9 76 10 68 0 77 -4 70 -34 -1 -5 -2 -20 -2 -32 0 -13 -7 -23 -14 -23 -8 0
-14 -7 -14 -16 0 -8 -4 -12 -10 -9 -5 3 -10 3 -10 -2 0 -8 -57 -31 -100 -39
-68 -14 -109 -27 -104 -35 3 -5 0 -9 -6 -9 -7 0 -14 9 -17 20 -3 11 -10 20
-15 20 -6 0 -5 6 2 15 9 11 7 19 -14 40 -30 30 -32 37 -11 29 8 -4 15 -3 15 0
0 4 -11 11 -25 16 -14 5 -25 16 -25 24 0 7 -7 19 -15 26 -22 18 -18 33 13 52
16 11 21 18 12 18 -9 0 -20 -4 -25 -9 -6 -6 -18 -2 -32 13 -12 12 -17 23 -10
23 7 0 21 4 32 8 16 5 17 5 5 -4 -8 -6 -10 -11 -4 -11 6 0 23 10 38 21 15 12
30 19 33 15 3 -3 12 3 20 13 7 11 32 29 56 41 61 31 80 61 82 134 4 105 20
301 25 301 2 0 9 58 13 107 2 24 92 61 149 61 18 0 25 4 21 13 -3 9 2 14 12
14 9 0 13 -4 10 -10z"/>
<path d="M2685 2190 c-3 -5 -1 -10 4 -10 6 0 11 5 11 10 0 6 -2 10 -4 10 -3 0
-8 -4 -11 -10z"/>
<path d="M2678 2073 c7 -3 16 -2 19 1 4 3 -2 6 -13 5 -11 0 -14 -3 -6 -6z"/>
<path d="M2560 1920 c0 -5 5 -10 10 -10 6 0 10 5 10 10 0 6 -4 10 -10 10 -5 0
-10 -4 -10 -10z"/>
<path d="M2653 1813 c9 -2 23 -2 30 0 6 3 -1 5 -18 5 -16 0 -22 -2 -12 -5z"/>
<path d="M2470 1730 c-8 -5 -11 -12 -7 -16 4 -4 13 -2 19 4 15 15 7 24 -12 12z"/>
<path d="M2400 1700 c0 -5 4 -10 9 -10 6 0 13 5 16 10 3 6 -1 10 -9 10 -9 0
-16 -4 -16 -10z"/>
<path d="M2912 2560 c-4 -11 -22 -124 -27 -175 -4 -33 -3 -55 4 -59 6 -4 11
-1 11 7 0 7 14 26 30 42 17 16 30 33 30 39 0 5 -7 1 -15 -10 -14 -18 -16 -18
-29 -1 -16 20 -15 52 2 52 18 0 25 14 14 27 -6 7 -12 29 -15 48 -2 19 -5 33
-5 30z m6 -178 c6 -18 -15 -14 -22 4 -4 10 -1 14 6 12 6 -2 14 -10 16 -16z"/>
<path d="M3440 2478 c0 -11 22 -10 40 2 11 8 9 9 -12 8 -16 -1 -28 -6 -28 -10z"/>
<path d="M4806 2464 c-5 -14 -4 -15 9 -4 17 14 19 20 6 20 -5 0 -12 -7 -15
-16z"/>
<path d="M4063 2451 c-22 -18 -22 -19 -3 -24 20 -5 22 -14 24 -104 1 -23 4
-45 9 -49 11 -12 8 -26 -5 -18 -8 5 -9 2 -3 -12 11 -26 27 -172 29 -261 1 -66
-2 -75 -27 -101 l-27 -28 33 -32 c18 -18 37 -32 42 -32 19 0 -15 597 -38 651
-12 27 -12 28 -34 10z"/>
<path d="M3416 2413 c-6 -14 -5 -15 5 -6 7 7 10 15 7 18 -3 3 -9 -2 -12 -12z"/>
<path d="M2050 2376 l-115 -33 -6 -54 c-4 -30 -9 -106 -12 -170 l-5 -115 50
25 c57 28 162 41 181 22 6 -6 19 -11 28 -11 16 0 44 -20 92 -67 23 -22 86 -21
121 2 51 34 67 105 30 136 -17 14 -19 33 -3 23 19 -11 -6 25 -104 151 -70 91
-99 120 -117 122 -14 1 -77 -13 -140 -31z m127 -58 c-7 -4 -13 -3 -15 2 -2 6
-10 10 -18 10 -24 0 -124 -49 -124 -60 0 -13 13 -13 28 2 31 31 152 45 152 17
0 -5 7 -6 15 -3 8 4 15 2 15 -4 0 -5 7 -12 15 -16 25 -9 17 12 -22 54 -24 28
-33 44 -26 51 12 12 63 -43 63 -67 0 -8 5 -14 10 -14 15 0 12 -16 -6 -34 -9
-9 -11 -16 -4 -16 6 0 8 -4 5 -10 -3 -5 0 -7 8 -4 9 3 13 13 10 25 -3 10 0 19
6 19 6 0 11 -7 11 -17 0 -9 3 -13 7 -10 10 10 47 -54 49 -85 1 -15 13 -38 28
-51 34 -32 33 -66 -3 -101 -22 -21 -35 -26 -51 -21 -15 5 -20 4 -16 -4 18 -28
-30 -7 -67 30 -24 24 -55 43 -76 48 -20 4 -35 12 -34 17 3 19 -91 15 -132 -6
-43 -22 -75 -26 -75 -9 0 5 6 7 13 3 9 -6 9 -4 -1 8 -11 13 -9 19 13 36 28 23
32 37 10 46 -8 3 -15 17 -15 31 0 22 9 30 33 26 4 0 7 11 7 27 l-1 27 -18 -22
c-26 -31 -31 -29 -31 10 0 34 35 77 64 77 9 0 16 5 16 10 0 6 11 10 24 10 13
0 43 7 66 15 51 18 53 18 45 3 -3 -7 0 -5 7 5 12 16 14 14 20 -15 4 -21 2 -35
-5 -40z m213 -163 c7 -9 8 -15 2 -15 -5 0 -12 7 -16 15 -3 8 -4 15 -2 15 2 0
9 -7 16 -15z"/>
<path d="M2133 2213 c-23 -15 -32 -63 -13 -63 6 0 10 6 10 14 0 8 11 23 25 34
13 11 21 22 18 26 -9 9 -15 7 -40 -11z"/>
<path d="M2210 2216 c0 -2 6 -15 13 -28 11 -21 15 -23 26 -11 7 8 11 16 10 17
-10 8 -49 26 -49 22z"/>
<path d="M2080 2189 c0 -5 5 -7 10 -4 6 3 10 8 10 11 0 2 -4 4 -10 4 -5 0 -10
-5 -10 -11z"/>
<path d="M2000 2146 c0 -9 8 -12 27 -8 25 5 25 6 8 13 -29 11 -35 10 -35 -5z"/>
<path d="M2256 2144 c-11 -8 -28 -12 -38 -8 -10 3 -18 1 -18 -4 0 -19 40 -20
63 -2 27 22 20 34 -7 14z"/>
<path d="M2120 2125 c0 -10 3 -15 7 -12 3 4 11 3 17 -3 7 -5 17 -5 26 0 12 8
11 10 -5 10 -12 0 -26 5 -33 12 -9 9 -12 8 -12 -7z"/>
<path d="M3686 2379 c-32 -17 -70 -32 -84 -33 -15 -2 -31 -12 -37 -22 -5 -10
-13 -21 -16 -24 -4 -3 -9 -15 -13 -27 -7 -23 8 -41 20 -22 4 8 9 7 16 -2 6
-10 7 -7 3 9 -7 24 2 63 13 59 8 -2 125 53 132 63 3 4 14 12 25 18 43 25 -4 9
-59 -19z m-133 -114 c-3 -9 -8 -14 -10 -11 -3 3 -2 9 2 15 9 16 15 13 8 -4z"/>
<path d="M3974 2321 c3 -5 15 -7 26 -4 28 7 25 13 -6 13 -14 0 -23 -4 -20 -9z"/>
<path d="M4658 2313 c-3 -13 -2 -23 3 -23 5 0 9 -5 9 -11 0 -5 -4 -7 -10 -4
-5 3 -10 -1 -10 -10 0 -9 5 -15 12 -13 14 5 40 78 27 78 -5 0 -9 -10 -10 -22
-1 -22 -1 -22 -8 2 -7 25 -7 25 -13 3z"/>
<path d="M3400 2310 c0 -5 5 -10 10 -10 6 0 10 5 10 10 0 6 -4 10 -10 10 -5 0
-10 -4 -10 -10z"/>
<path d="M3668 2313 c7 -3 16 -2 19 1 4 3 -2 6 -13 5 -11 0 -14 -3 -6 -6z"/>
<path d="M3835 2303 c-5 -15 21 -17 30 -3 4 6 10 8 14 6 4 -3 21 -1 37 4 25 8
21 9 -23 7 -31 -1 -55 -7 -58 -14z"/>
<path d="M3767 2290 c-20 -11 -44 -20 -52 -20 -8 0 -15 -4 -15 -9 0 -5 -8 -12
-17 -14 -16 -4 -16 -5 1 -6 10 0 35 9 54 21 20 12 45 22 56 23 10 0 21 6 23
13 6 17 -6 15 -50 -8z"/>
<path d="M3425 2250 c-22 -9 -44 -16 -50 -15 -5 1 -7 0 -3 -2 5 -3 3 -13 -2
-23 -5 -10 -7 -25 -4 -34 5 -12 10 -11 32 9 15 13 38 32 51 42 37 30 23 43
-24 23z m-29 -46 c-4 -9 -9 -15 -11 -12 -3 3 -3 13 1 22 4 9 9 15 11 12 3 -3
3 -13 -1 -22z"/>
<path d="M3627 2234 c-4 -4 -4 -10 -1 -15 6 -10 34 0 34 12 0 10 -24 12 -33 3z"/>
<path d="M4030 2211 c0 -12 6 -21 14 -21 8 0 22 -10 31 -22 l17 -23 -7 25 c-4
14 -12 27 -17 28 -4 2 -15 10 -23 19 -13 13 -15 12 -15 -6z"/>
<path d="M3580 2195 c-11 -13 -10 -14 4 -9 9 3 16 10 16 15 0 13 -6 11 -20 -6z"/>
<path d="M3763 2178 c-10 -11 -12 -18 -5 -18 7 0 12 5 12 10 0 6 11 10 24 10
23 0 55 -29 99 -90 9 -14 40 -56 68 -95 27 -38 56 -69 64 -69 8 1 11 -4 8 -13
-5 -13 -3 -13 18 -3 32 18 48 40 49 68 0 44 -30 128 -58 162 -27 32 -29 33
-34 12 -4 -12 -2 -22 3 -22 5 0 9 -7 9 -15 0 -8 7 -15 15 -15 8 0 15 -5 15
-11 0 -5 -5 -7 -12 -3 -7 4 -8 3 -4 -5 4 -6 12 -9 17 -6 5 4 9 0 9 -9 0 -8 4
-16 9 -18 15 -5 18 -83 4 -81 -7 2 -13 -1 -13 -6 0 -16 -31 -21 -44 -8 -12 12
-23 50 -30 105 -3 26 -42 82 -56 82 -6 0 -10 -10 -9 -22 0 -13 3 -17 6 -10 2
6 9 12 14 12 13 0 11 -27 -3 -36 -12 -8 -40 24 -32 38 3 4 -2 15 -10 24 -9 8
-16 12 -16 8 0 -4 -12 3 -26 17 -31 29 -68 32 -91 7z m207 -113 c-12 -15 -30
-12 -30 6 0 5 10 9 21 9 18 0 19 -2 9 -15z"/>
<path d="M3588 2138 c-10 -10 -14 -18 -9 -18 10 0 36 29 30 34 -2 1 -12 -6
-21 -16z"/>
<path d="M3698 2137 c-30 -25 -80 -61 -88 -63 -34 -10 -50 -18 -50 -26 0 -12
-29 -42 -35 -36 -3 2 0 20 5 39 12 42 13 69 2 69 -5 0 -16 -27 -25 -59 -15
-53 -19 -59 -41 -57 -14 2 -39 15 -56 30 -17 14 -36 26 -41 26 -5 0 -9 7 -9
16 0 8 -4 13 -9 10 -5 -3 -11 0 -14 8 -15 39 -116 56 -185 32 -23 -8 -44 -15
-47 -15 -3 -1 -21 -8 -41 -16 -20 -8 -43 -15 -50 -15 -23 0 -16 -16 26 -65 22
-26 50 -65 61 -88 12 -22 28 -47 35 -55 8 -7 14 -18 14 -23 0 -5 7 -9 16 -9 8
0 13 -4 10 -8 -6 -9 21 -35 47 -45 30 -11 76 14 201 111 163 128 316 253 316
258 0 9 -17 2 -42 -19z m-421 -36 c40 -13 50 -20 41 -29 -9 -9 -9 -12 3 -12
12 0 12 -2 -1 -10 -15 -9 5 -14 63 -13 10 0 17 -8 17 -19 0 -18 -8 -20 -75
-20 -23 0 -25 -1 -7 -5 12 -2 20 -9 17 -14 -4 -5 -3 -9 2 -10 4 0 17 -2 27 -4
11 -2 29 3 40 11 11 8 39 14 61 14 l40 -1 -25 -19 c-14 -11 -30 -23 -35 -27
-6 -5 -33 -26 -60 -48 -98 -80 -136 -96 -175 -75 -25 13 -18 30 10 23 11 -3
27 0 35 7 8 7 15 9 15 6 0 -4 7 0 16 8 8 9 21 16 27 16 7 0 23 12 36 25 31 33
11 32 -28 -1 -17 -14 -31 -22 -31 -17 0 4 -4 3 -8 -2 -4 -6 -26 -15 -50 -21
-39 -10 -44 -9 -57 10 -8 11 -15 17 -15 13 0 -23 -29 25 -35 57 -4 20 -10 35
-12 32 -10 -10 -52 46 -46 61 4 10 2 14 -4 10 -6 -4 -14 0 -17 9 -8 20 -8 24
2 23 22 -4 52 2 48 9 -3 5 10 9 28 10 18 1 43 6 57 11 33 13 37 13 96 -8z"/>
<path d="M3107 2043 c3 -7 9 -10 14 -7 5 3 30 8 56 11 71 8 66 14 -9 11 -48
-2 -64 -6 -61 -15z"/>
<path d="M3254 1971 c-16 -9 -31 -19 -32 -24 -2 -4 -7 -6 -10 -4 -4 2 -15 -4
-24 -15 -26 -27 -2 -22 37 8 19 14 46 29 61 33 20 5 24 9 13 13 -8 3 -29 -1
-45 -11z"/>
<path d="M2454 2055 c1 -44 -2 -50 -46 -90 -73 -66 -136 -69 -192 -8 -33 35
-33 26 0 -38 25 -50 26 -51 62 -44 20 4 56 17 81 30 48 24 131 100 131 119 -1
6 -9 26 -19 45 l-18 34 1 -48z"/>
<path d="M3790 2050 c0 -5 5 -10 11 -10 5 0 7 5 4 10 -3 6 -8 10 -11 10 -2 0
-4 -4 -4 -10z"/>
<path d="M2040 2026 c-86 -23 -119 -45 -129 -85 -15 -55 -42 -253 -36 -259 3
-3 5 1 5 9 0 21 68 88 96 95 13 3 24 10 24 14 0 8 7 11 75 33 34 11 40 17 43
45 l3 32 -41 -15 c-66 -23 -141 -30 -151 -14 -22 35 23 89 99 118 67 27 71 26
38 -4 -15 -14 -35 -25 -44 -25 -10 0 -23 -9 -30 -20 -7 -11 -19 -20 -27 -20
-8 0 -15 -7 -15 -15 0 -19 34 -20 52 -1 8 8 37 25 64 39 58 29 79 50 70 72 -6
18 -35 18 -96 1z m23 -173 c-7 -2 -19 -2 -25 0 -7 3 -2 5 12 5 14 0 19 -2 13
-5z m-43 -13 c0 -3 -23 -18 -51 -33 -51 -28 -72 -30 -51 -4 7 8 9 17 6 20 -13
13 7 23 50 23 25 0 46 -3 46 -6z"/>
<path d="M3829 2009 c-11 -7 -10 -9 5 -9 11 0 16 -3 13 -6 -4 -4 3 -16 16 -26
l22 -20 -24 -19 c-25 -20 -13 -26 20 -9 26 14 24 29 -9 67 -21 23 -32 29 -43
22z"/>
<path d="M4047 1995 c3 -8 9 -12 14 -9 12 7 11 11 -5 17 -10 4 -13 1 -9 -8z"/>
<path d="M3690 1971 c-22 -6 -23 -8 -7 -14 10 -4 32 0 50 7 30 13 30 14 7 14
-14 0 -36 -3 -50 -7z"/>
<path d="M3622 1940 c-45 -25 -49 -30 -21 -25 13 3 25 9 27 15 2 5 10 10 18
10 8 0 14 5 14 10 0 12 2 13 -38 -10z"/>
<path d="M3756 1935 c-3 -8 -1 -15 4 -15 6 0 10 7 10 15 0 8 -2 15 -4 15 -2 0
-6 -7 -10 -15z"/>
<path d="M1985 1754 c-63 -32 -73 -41 -91 -75 -32 -63 -59 -266 -40 -298 10
-15 56 -11 143 14 53 15 63 22 72 48 14 39 14 70 -1 85 -8 8 -8 15 2 27 8 10
13 50 14 118 1 102 1 102 -24 104 -14 2 -47 -9 -75 -23z m85 -20 c0 -8 -4 -14
-10 -14 -13 0 -13 -27 0 -32 7 -2 6 -15 -1 -38 -12 -39 -12 -123 0 -128 4 -1
3 -18 -3 -38 -13 -41 -75 -77 -116 -68 -20 5 -22 4 -10 -6 13 -9 12 -10 -5 -8
-11 1 -26 -1 -34 -6 -10 -7 -12 -6 -6 4 4 7 2 16 -6 22 -11 7 -11 11 -1 15 6
2 12 12 12 21 0 15 -2 15 -10 2 -5 -8 -10 -10 -10 -5 0 6 4 15 9 20 6 6 11 34
12 63 2 29 6 55 11 58 4 3 8 16 8 30 0 13 4 24 8 24 5 0 15 12 23 28 18 35 37
55 47 48 5 -3 21 4 37 14 30 20 45 18 45 -6z"/>
<path d="M1987 1535 c3 -8 0 -15 -6 -15 -6 0 -11 -8 -11 -17 1 -16 2 -16 13
-2 7 9 20 15 30 13 25 -3 21 11 -8 24 -20 9 -23 9 -18 -3z"/>
<path d="M1900 1429 c0 -5 5 -7 10 -4 6 3 10 8 10 11 0 2 -4 4 -10 4 -5 0 -10
-5 -10 -11z"/>
<path d="M2922 1653 c-1 -38 -9 -99 -16 -137 -8 -38 -13 -73 -10 -78 3 -4 -2
-5 -10 -2 -9 3 -16 14 -16 25 0 10 -8 23 -17 28 -17 10 -17 12 1 26 11 8 16
18 12 22 -4 4 -12 0 -17 -9 -6 -11 -16 -15 -27 -11 -13 5 -11 -2 9 -28 14 -19
29 -44 33 -56 8 -26 31 -30 40 -8 6 17 33 185 40 253 3 28 0 42 -7 42 -8 0
-13 -24 -15 -67z"/>
<path d="M3415 1707 c17 -8 32 -13 34 -11 7 7 -3 12 -34 19 l-30 6 30 -14z"/>
<path d="M1996 1247 c3 -10 9 -15 12 -12 3 3 0 11 -7 18 -10 9 -11 8 -5 -6z"/>
<path d="M4407 2559 c7 -7 15 -10 18 -7 3 3 -2 9 -12 12 -14 6 -15 5 -6 -5z"/>
<path d="M4330 2540 c0 -5 5 -10 10 -10 6 0 10 5 10 10 0 6 -4 10 -10 10 -5 0
-10 -4 -10 -10z"/>
<path d="M4290 2510 c0 -5 5 -10 10 -10 6 0 10 5 10 10 0 6 -4 10 -10 10 -5 0
-10 -4 -10 -10z"/>
<path d="M4361 2495 c0 -5 4 -17 9 -25 7 -12 12 -12 22 -2 9 9 9 12 -4 12 -9
0 -19 6 -21 13 -3 6 -6 8 -6 2z"/>
<path d="M4316 2465 c-3 -9 3 -19 14 -25 24 -13 28 4 6 25 -12 12 -15 12 -20
0z"/>
<path d="M4223 2025 c0 -33 2 -45 4 -27 2 18 2 45 0 60 -2 15 -4 0 -4 -33z"/>
<path d="M1286 1833 c-3 -3 -6 -18 -5 -32 l1 -26 7 25 c7 24 8 25 15 3 4 -11
13 -27 22 -34 12 -10 13 -9 8 7 -11 29 -40 64 -48 57z"/>
<path d="M1270 1705 c0 -5 5 -17 10 -25 5 -8 10 -10 10 -5 0 6 -5 17 -10 25
-5 8 -10 11 -10 5z"/>
<path d="M1449 1803 c-12 -3 -18 -21 -23 -66 -4 -34 -10 -73 -13 -87 -4 -19
-3 -22 7 -14 13 13 60 137 60 159 0 15 -3 16 -31 8z"/>
<path d="M2616 1511 c-3 -4 20 -16 50 -26 30 -10 54 -24 54 -32 0 -7 5 -13 12
-13 6 0 8 -3 5 -7 -11 -11 35 -53 57 -52 21 0 21 0 -1 16 -13 8 -23 20 -23 25
0 13 -26 38 -33 32 -3 -3 -8 3 -11 13 -8 25 -100 61 -110 44z"/>
<path d="M2510 1440 c0 -5 7 -10 16 -10 8 0 12 5 9 10 -3 6 -10 10 -16 10 -5
0 -9 -4 -9 -10z"/>
<path d="M2540 1409 c0 -5 5 -7 10 -4 6 3 10 8 10 11 0 2 -4 4 -10 4 -5 0 -10
-5 -10 -11z"/>
<path d="M4850 3198 c-58 -15 -175 -47 -260 -70 -85 -23 -159 -46 -165 -51 -6
-6 3 -7 25 -2 19 5 47 9 62 9 14 1 24 4 22 7 -2 4 9 9 24 12 15 2 99 24 187
47 223 60 209 61 272 -35 29 -44 65 -93 80 -108 33 -34 45 -33 203 19 137 44
147 44 187 -9 18 -23 45 -56 60 -74 102 -115 119 -151 81 -171 -20 -11 -75
-48 -103 -69 -62 -49 -197 -143 -205 -143 -5 0 -13 -6 -17 -13 -4 -6 -28 -25
-53 -42 -70 -46 -155 -109 -158 -117 -2 -5 -9 -8 -16 -8 -7 0 -21 -9 -31 -20
-10 -11 -24 -20 -31 -20 -7 0 -19 -9 -27 -20 -8 -11 -17 -17 -20 -13 -4 3 -7
1 -7 -5 0 -7 -6 -12 -14 -12 -7 0 -24 -10 -38 -22 -14 -13 -32 -27 -41 -33
-59 -38 -203 -141 -209 -149 -4 -6 -8 -7 -8 -2 0 6 -9 0 -19 -11 -11 -11 -33
-27 -50 -34 -17 -8 -31 -17 -31 -21 0 -10 4 -10 37 4 15 6 31 11 35 10 4 -1
10 7 13 18 4 11 15 20 26 20 10 0 19 4 19 9 0 5 19 19 43 30 24 12 61 37 83
56 21 19 45 35 52 35 6 0 12 6 12 14 0 8 20 22 45 33 25 10 45 21 45 24 0 4
25 22 55 40 30 18 55 37 55 41 0 4 7 8 15 8 9 0 18 7 21 15 4 8 12 15 20 15 8
0 14 4 14 8 0 11 120 88 132 84 5 -1 7 1 4 6 -5 8 27 42 40 42 2 0 14 8 24 18
11 10 40 29 65 41 25 12 45 26 45 31 0 4 15 17 33 29 64 41 72 47 121 83 l50
36 18 -24 c11 -13 16 -28 13 -34 -3 -5 1 -10 9 -10 29 0 17 -26 -28 -59 -24
-19 -47 -33 -50 -32 -3 0 -18 -9 -32 -22 -14 -12 -33 -22 -42 -22 -10 0 -16
-8 -16 -18 2 -15 -1 -16 -14 -5 -9 7 -13 8 -9 2 4 -6 -3 -20 -15 -30 -15 -13
-19 -14 -14 -4 4 8 0 6 -9 -5 -9 -11 -20 -19 -25 -18 -5 2 -14 -6 -20 -18 -8
-14 -17 -18 -31 -14 -11 4 -18 2 -17 -3 4 -14 -95 -89 -111 -84 -8 3 -11 0 -7
-7 4 -6 -1 -14 -11 -18 -10 -4 -31 -20 -48 -35 -16 -15 -36 -26 -43 -23 -8 3
-10 0 -6 -7 5 -8 2 -9 -10 -5 -14 5 -17 3 -12 -8 4 -10 -1 -15 -14 -15 -11 0
-20 -4 -20 -10 0 -15 -77 -63 -89 -55 -6 3 -11 0 -11 -7 0 -23 -34 -45 -56
-37 -11 4 -13 8 -5 8 8 1 12 3 9 6 -3 3 -12 3 -21 -1 -13 -4 -14 -9 -4 -19 7
-7 16 -10 21 -7 5 3 6 0 2 -6 -4 -7 -19 -12 -34 -12 -18 0 -23 -3 -14 -8 9 -6
5 -12 -13 -20 -26 -12 -129 -85 -153 -109 -7 -6 -20 -10 -30 -7 -13 5 -14 4
-3 -4 21 -15 -1 -20 -67 -13 -7 0 -11 5 -8 10 4 5 -4 7 -16 3 -15 -4 -19 -2
-13 7 5 9 1 12 -11 11 -11 -1 -24 -2 -30 -1 -18 2 -51 35 -47 47 2 6 -3 11
-12 11 -18 0 -19 1 1 -40 12 -25 27 -38 53 -46 20 -6 57 -17 83 -25 l48 -15
62 43 c92 62 649 455 825 582 83 60 160 114 170 120 17 11 17 13 1 45 -63 125
-147 243 -254 355 l-31 32 -156 -48 c-113 -34 -159 -45 -166 -36 -5 6 -39 56
-76 111 -37 55 -72 103 -78 106 -7 3 -59 -7 -117 -23z"/>
<path d="M5585 2809 c-10 -15 3 -25 16 -12 7 7 7 13 1 17 -6 3 -14 1 -17 -5z"/>
<path d="M5519 2753 c-13 -16 -12 -17 4 -4 9 7 17 15 17 17 0 8 -8 3 -21 -13z"/>
<path d="M2078 2553 c7 -3 16 -2 19 1 4 3 -2 6 -13 5 -11 0 -14 -3 -6 -6z"/>
<path d="M5461 2543 c6 -7 17 -13 23 -12 7 0 6 2 -2 6 -6 2 -10 8 -8 12 3 4
-1 8 -9 8 -11 0 -12 -4 -4 -14z"/>
<path d="M2075 2500 c-93 -27 -188 -55 -210 -62 l-40 -13 -3 -70 c-3 -77 8
-84 15 -8 4 48 33 90 53 78 6 -3 10 -2 10 3 0 5 6 9 13 10 6 0 62 14 122 32
61 17 130 35 155 40 25 5 54 12 64 16 15 6 17 4 11 -6 -5 -8 -4 -11 3 -6 7 4
30 -23 58 -66 26 -40 63 -89 82 -108 22 -23 6 7 -47 88 -54 81 -87 122 -99
121 -9 -1 -93 -23 -187 -49z"/>
<path d="M5455 2421 c-3 -5 -2 -12 3 -15 5 -3 9 1 9 9 0 17 -3 19 -12 6z"/>
<path d="M1470 2343 c-51 -6 -208 -41 -260 -57 -25 -8 -90 -26 -145 -41 -55
-15 -103 -30 -107 -34 -6 -5 -119 -531 -134 -621 -3 -14 -9 -45 -14 -70 -6
-25 -17 -81 -26 -125 -9 -44 -27 -134 -40 -199 -19 -95 -21 -123 -11 -135 54
-71 165 -201 191 -224 38 -33 79 -56 170 -92 61 -24 78 -27 145 -22 44 3 115
18 168 36 158 52 269 117 400 237 l79 72 44 -25 c115 -65 155 -83 183 -83 36
0 254 67 262 81 4 5 12 55 18 111 8 62 17 103 25 106 6 2 12 -5 12 -15 0 -10
9 -32 19 -49 15 -25 39 -39 126 -73 59 -22 116 -41 127 -41 16 0 390 116 406
125 1 1 11 76 22 166 11 90 22 170 25 177 12 33 87 -4 140 -70 35 -44 52 -55
128 -84 48 -19 93 -31 100 -27 7 3 128 80 270 170 l259 164 21 -28 c12 -16 33
-40 47 -54 14 -14 56 -61 94 -105 128 -145 191 -204 218 -204 34 0 38 14 38
120 0 68 -3 89 -15 93 -24 10 -63 81 -70 131 -7 46 9 136 25 136 4 0 12 11 18
25 8 17 20 25 37 25 14 0 38 6 53 13 34 17 108 21 117 7 3 -6 11 -8 16 -4 10
6 99 -46 99 -59 0 -9 17 -31 43 -55 9 -9 17 -27 17 -40 0 -13 4 -20 10 -17 5
3 3 -12 -5 -35 -8 -22 -14 -42 -14 -45 -1 -21 -15 -55 -22 -55 -5 0 -9 -7 -9
-15 0 -8 -7 -15 -15 -15 -8 0 -15 -4 -15 -9 0 -16 -80 -41 -132 -41 -35 0 -58
6 -71 18 -15 12 -18 13 -12 2 4 -8 -2 -5 -15 8 -12 13 -25 21 -28 17 -9 -9 68
-84 114 -111 76 -45 186 -41 248 7 43 34 69 95 64 150 -5 49 -52 135 -124 229
-70 90 -179 122 -271 80 l-43 -19 0 69 c0 71 -6 100 -20 100 -5 0 -9 -8 -9
-17 1 -10 -2 -29 -6 -43 -4 -16 -3 -20 2 -12 6 8 9 -3 9 -32 -1 -24 -5 -44
-10 -43 -5 1 -11 -4 -14 -12 -3 -8 0 -11 7 -7 6 4 11 4 11 0 0 -10 -50 -54
-61 -54 -7 0 -9 41 -6 119 3 65 1 125 -4 132 -5 8 -9 -48 -10 -141 -4 -501 -3
-474 -22 -478 -17 -3 -84 54 -75 64 3 2 11 -2 18 -11 14 -17 50 -20 50 -4 0 6
-6 9 -14 6 -8 -3 -20 1 -27 9 -7 8 -20 12 -31 8 -14 -4 -18 -1 -16 9 2 9 0 15
-3 14 -10 -3 -49 34 -49 46 0 6 10 2 23 -9 l22 -19 -18 22 c-12 13 -25 19 -35
16 -12 -5 -14 -2 -8 12 4 11 4 16 0 12 -8 -8 -94 71 -94 86 0 4 4 5 10 2 6 -3
7 1 3 10 -3 9 -8 12 -12 7 -7 -11 -61 -4 -61 7 0 4 -20 29 -44 56 -41 46 -44
48 -60 32 -10 -9 -21 -17 -24 -17 -4 0 -20 -11 -35 -25 -15 -14 -27 -23 -27
-21 0 3 -48 -25 -107 -62 -60 -37 -141 -88 -181 -112 -40 -25 -92 -57 -115
-72 -69 -45 -80 -48 -99 -27 -10 10 -18 21 -18 24 0 10 -45 50 -73 65 -37 20
-199 211 -193 227 3 7 2 13 -3 13 -4 0 -13 -48 -21 -107 -7 -60 -16 -135 -20
-168 -5 -33 -11 -82 -15 -110 -11 -95 -16 -116 -26 -110 -5 4 -35 -3 -67 -15
-31 -12 -66 -23 -77 -25 -11 -2 -39 -10 -62 -18 -24 -9 -43 -14 -43 -10 0 3
-6 1 -12 -4 -7 -6 -44 -18 -83 -28 -38 -10 -78 -22 -88 -27 -29 -15 -52 0 -76
47 -12 25 -26 45 -30 45 -9 0 -73 129 -97 198 -10 28 -22 52 -26 52 -4 0 -5
-7 -1 -16 9 -24 -19 -343 -31 -353 -6 -5 -36 -14 -66 -21 -30 -7 -68 -18 -85
-25 -16 -7 -62 -21 -100 -30 -66 -17 -73 -17 -103 -1 -30 15 -112 114 -112
135 0 28 -25 17 -73 -31 -149 -152 -338 -264 -530 -313 -158 -41 -257 -44
-257 -10 0 9 -6 12 -15 8 -9 -3 -15 -2 -13 3 4 12 -28 56 -75 104 -20 21 -37
44 -37 50 0 6 -5 8 -12 4 -8 -5 -9 -2 -5 9 4 11 1 17 -9 17 -20 0 -36 45 -25
73 5 13 11 37 14 53 3 16 15 76 26 134 12 58 24 117 26 132 3 15 18 85 34 155
16 70 33 154 36 186 4 31 12 57 17 57 5 0 6 5 3 11 -4 5 2 52 13 102 12 51 26
119 32 152 13 68 36 102 71 107 22 4 50 12 209 63 94 30 257 56 350 57 80 0
106 -4 160 -26 74 -30 76 -31 61 -12 -30 36 -220 64 -331 49z m2494 -588 c15
-19 23 -35 19 -35 -4 0 -1 -4 7 -10 12 -7 10 -12 -9 -29 -27 -24 -35 -27 -25
-8 4 6 -7 -1 -24 -17 -18 -17 -37 -26 -46 -23 -11 4 -13 1 -9 -10 5 -13 3 -14
-18 -3 -22 12 -23 12 -11 -3 11 -13 10 -17 -8 -27 -12 -6 -28 -9 -35 -6 -8 3
-12 0 -9 -8 5 -12 -54 -46 -82 -46 -8 0 -13 -3 -11 -7 3 -5 -1 -14 -9 -21 -8
-7 -14 -10 -14 -7 0 4 -7 -1 -16 -10 -9 -9 -23 -14 -30 -11 -8 3 -14 -1 -14
-11 0 -13 -3 -13 -15 -3 -13 11 -14 10 -9 -4 4 -10 1 -16 -10 -16 -8 0 -26
-11 -39 -25 -24 -27 -63 -26 -53 1 3 8 0 11 -9 7 -8 -3 -12 -10 -8 -16 4 -7 0
-8 -13 -3 -10 5 -27 11 -37 14 -15 4 -16 7 -5 14 9 7 6 8 -10 5 -15 -4 -22 -1
-19 6 3 7 10 11 16 9 7 -1 10 2 6 8 -3 5 7 16 22 22 15 7 37 21 48 31 10 9 25
15 32 13 7 -3 12 0 10 7 -1 7 10 13 26 15 15 2 25 8 22 13 -4 5 1 9 10 9 10 0
13 5 9 13 -4 6 -4 9 1 5 4 -4 19 2 33 12 13 11 31 20 38 20 8 0 14 4 14 9 0 5
8 12 18 15 9 3 26 12 37 19 46 29 110 72 115 78 9 10 55 33 63 31 4 -1 7 3 7
8 0 20 18 9 44 -25z m-887 -52 c4 -10 18 -28 31 -40 15 -13 21 -27 16 -35 -4
-7 -3 -10 1 -5 12 11 45 -23 38 -40 -5 -12 -7 -12 -14 -1 -7 10 -9 9 -9 -5 0
-10 -4 -16 -8 -13 -9 5 -8 8 -21 -124 -23 -226 -22 -220 -52 -220 -10 0 -19
-5 -19 -11 0 -6 -9 -9 -20 -6 -11 3 -20 1 -20 -5 0 -5 -4 -6 -10 -3 -5 3 -10
1 -10 -6 0 -8 -5 -7 -17 2 -9 8 -14 9 -10 2 7 -12 -49 -37 -63 -28 -5 3 -10 0
-12 -6 -2 -6 -16 -11 -31 -11 -15 0 -27 -5 -27 -11 0 -6 -3 -8 -6 -4 -3 3 -25
-3 -49 -13 -50 -22 -83 -20 -122 6 -15 10 -34 17 -41 16 -6 -2 -20 2 -30 7
-15 9 -15 10 -1 11 9 0 20 7 23 16 3 9 12 14 20 11 7 -3 51 8 97 25 46 16 95
31 109 33 14 1 45 12 70 24 25 11 55 21 66 21 21 0 30 15 40 65 12 61 24 159
24 198 0 24 7 52 15 63 8 10 14 33 13 49 -1 30 -1 29 -8 -5 -7 -32 -7 -33 -9
-7 -2 52 32 88 46 50z m1787 -95 c-3 -4 0 -8 6 -8 7 0 10 -20 9 -55 -1 -30 -6
-55 -11 -55 -5 0 -7 -3 -4 -8 2 -4 -2 -16 -10 -27 -8 -10 -14 -13 -14 -6 0 7
-10 0 -23 -15 -19 -22 -34 -28 -79 -32 -70 -5 -127 12 -125 38 1 15 5 16 19 9
13 -7 23 -6 33 5 8 8 22 13 32 12 23 -4 100 73 108 107 5 17 12 24 19 20 6 -4
4 2 -4 12 -14 17 -13 18 3 12 15 -6 17 -3 12 14 -7 20 -6 20 14 3 11 -10 18
-21 15 -26z m-449 -88 c-4 -6 -3 -10 2 -9 21 4 33 -2 33 -17 0 -9 -5 -12 -12
-8 -8 5 -9 2 -4 -12 4 -10 8 -45 9 -77 1 -32 0 -52 -2 -46 -2 8 -6 7 -13 -2
-7 -11 -11 -11 -15 -1 -2 6 -9 10 -13 7 -5 -3 -11 -1 -15 5 -3 5 -1 10 5 10 7
0 6 5 -2 14 -7 7 -19 11 -25 9 -7 -3 -13 0 -13 6 0 7 10 16 23 21 12 5 17 9
10 9 -14 1 -5 83 11 93 8 5 7 8 -1 8 -7 0 -13 10 -13 22 l0 22 21 -22 c11 -12
17 -27 14 -32z m-2080 -147 c-3 -14 -2 -22 3 -19 12 7 36 -49 27 -63 -4 -7 0
-8 11 -4 14 5 15 1 9 -26 -4 -17 -8 -46 -10 -64 -14 -130 -19 -147 -40 -147
-9 0 -23 -7 -31 -15 -9 -8 -21 -15 -27 -15 -7 0 -6 4 3 10 27 17 0 10 -42 -11
-22 -11 -51 -19 -64 -16 -13 2 -21 1 -19 -3 5 -9 -45 -18 -63 -12 -7 2 -10 8
-7 13 4 5 0 7 -7 4 -15 -6 -93 31 -81 38 17 10 151 47 172 47 12 0 19 4 16 10
-5 8 26 15 56 12 3 -1 18 10 34 24 26 22 29 31 29 84 0 45 4 59 13 56 7 -3 13
-1 13 4 0 6 -5 10 -10 10 -6 0 -9 20 -8 45 0 25 5 45 9 45 5 0 5 7 2 17 -4 11
-3 14 6 9 8 -5 10 -18 6 -33z m-508 -249 c12 -13 20 -30 19 -38 -3 -21 -39
-66 -48 -60 -4 3 -8 -2 -8 -12 0 -14 -3 -14 -15 -4 -13 11 -14 10 -10 -2 6
-14 -72 -86 -87 -80 -5 1 -8 -2 -8 -6 0 -10 -50 -37 -62 -34 -5 1 -8 -4 -8
-11 0 -9 -11 -13 -30 -12 -24 1 -28 -1 -19 -12 14 -16 5 -17 -24 -2 -18 9 -20
9 -10 -1 19 -21 -67 -63 -129 -63 -15 0 -25 -3 -23 -7 3 -4 -1 -8 -8 -7 -31 1
-48 -4 -43 -12 3 -5 -14 -8 -39 -7 -25 1 -45 -1 -45 -5 0 -3 -14 -6 -30 -7
-17 0 -28 3 -25 8 3 4 -3 6 -13 4 -9 -3 -39 6 -65 20 -26 15 -55 26 -63 26 -8
0 -13 4 -10 9 3 4 26 7 50 6 25 -1 43 2 40 6 -2 4 21 11 52 15 56 7 173 43
196 61 23 17 137 73 145 71 5 -2 20 9 34 22 14 14 38 34 54 45 16 11 34 26 41
33 7 7 19 11 26 10 8 -2 12 4 10 16 -2 10 0 16 5 13 5 -3 29 15 53 39 45 45
45 45 60 24 8 -12 25 -33 37 -46z"/>
<path d="M3867 1669 c7 -7 15 -10 18 -7 3 3 -2 9 -12 12 -14 6 -15 5 -6 -5z"/>
<path d="M3051 1254 c0 -11 3 -14 6 -6 3 7 2 16 -1 19 -3 4 -6 -2 -5 -13z"/>
<path d="M1275 770 c-3 -6 1 -7 9 -4 18 7 21 14 7 14 -6 0 -13 -4 -16 -10z"/>
<path d="M4377 2317 l-27 -29 6 -108 c4 -62 11 -107 16 -104 5 3 6 19 3 34 -5
23 -2 31 15 40 20 11 21 10 15 -10 -5 -15 -3 -20 3 -16 13 8 52 -23 52 -41 0
-7 6 -12 13 -10 6 1 11 -4 10 -10 -2 -7 4 -13 11 -13 8 0 21 -12 28 -27 7 -14
20 -28 28 -30 13 -4 13 -3 0 9 -8 7 -15 18 -15 25 0 6 -35 48 -78 92 -59 63
-79 91 -87 124 -5 26 -5 46 1 52 6 5 9 2 9 -10 1 -14 6 -9 16 14 20 46 14 52
-19 18z m13 -147 c0 -5 -5 -10 -11 -10 -5 0 -7 5 -4 10 3 6 8 10 11 10 2 0 4
-4 4 -10z"/>
<path d="M4399 2223 c12 -24 31 -39 31 -25 0 5 -10 17 -21 28 -22 19 -22 19
-10 -3z"/>
<path d="M5005 2230 c-3 -5 -1 -10 4 -10 6 0 11 5 11 10 0 6 -2 10 -4 10 -3 0
-8 -4 -11 -10z"/>
<path d="M5049 2219 l-24 -20 28 17 c15 9 27 18 27 20 0 8 -8 4 -31 -17z"/>
<path d="M1528 2173 c7 -3 16 -2 19 1 4 3 -2 6 -13 5 -11 0 -14 -3 -6 -6z"/>
<path d="M4484 2117 c27 -31 53 -57 58 -57 12 0 -67 91 -90 104 -9 5 5 -16 32
-47z"/>
<path d="M1512 2146 c7 -8 15 -12 17 -11 5 6 -10 25 -20 25 -5 0 -4 -6 3 -14z"/>
<path d="M4593 2088 c-13 -6 -23 -15 -23 -20 0 -7 31 8 59 29 10 7 -16 1 -36
-9z"/>
<path d="M1630 2086 c0 -2 11 -6 25 -8 14 -3 25 -1 25 3 0 5 -11 9 -25 9 -14
0 -25 -2 -25 -4z"/>
<path d="M1128 2073 c7 -3 16 -2 19 1 4 3 -2 6 -13 5 -11 0 -14 -3 -6 -6z"/>
<path d="M1095 2050 c-3 -5 -1 -10 4 -10 6 0 11 5 11 10 0 6 -2 10 -4 10 -3 0
-8 -4 -11 -10z"/>
<path d="M1167 2006 c-4 -10 -5 -21 -2 -24 9 -9 17 6 13 25 -3 17 -4 17 -11
-1z"/>
<path d="M4639 1983 c-13 -16 -12 -17 4 -4 16 13 21 21 13 21 -2 0 -10 -8 -17
-17z"/>
<path d="M1634 1968 c-3 -5 26 -8 65 -8 38 0 72 4 75 8 3 5 -27 8 -65 8 -39
-1 -73 -4 -75 -8z"/>
<path d="M1620 1921 c0 -5 9 -7 20 -4 11 3 20 7 20 9 0 2 -9 4 -20 4 -11 0
-20 -4 -20 -9z"/>
<path d="M1693 1923 c9 -2 23 -2 30 0 6 3 -1 5 -18 5 -16 0 -22 -2 -12 -5z"/>
<path d="M1116 1905 c-3 -9 -6 -22 -5 -28 0 -7 5 -1 10 12 5 13 8 26 5 28 -2
2 -6 -3 -10 -12z"/>
<path d="M3930 1866 c0 -2 7 -7 16 -10 8 -3 12 -2 9 4 -6 10 -25 14 -25 6z"/>
<path d="M1680 1830 c0 -6 7 -10 15 -10 8 0 15 2 15 4 0 2 -7 6 -15 10 -8 3
-15 1 -15 -4z"/>
<path d="M4520 1818 c-47 -27 -68 -54 -81 -102 -39 -143 150 -253 263 -154 65
57 75 164 22 221 -52 57 -141 72 -204 35z m138 -44 c16 -11 22 -25 22 -55 0
-21 -3 -39 -7 -39 -5 0 -14 -4 -22 -9 -12 -8 -9 -15 12 -41 29 -34 28 -50 -4
-50 -11 0 -19 -7 -20 -17 -1 -17 -2 -17 -6 0 -2 9 -9 15 -14 11 -5 -3 -7 -10
-4 -15 4 -5 -3 -9 -14 -9 -12 0 -21 6 -21 13 0 9 -2 9 -9 -1 -7 -11 -9 -11
-14 1 -5 15 15 42 24 33 8 -8 60 -15 57 -8 -2 4 -10 19 -17 34 -7 14 -24 28
-37 31 -20 3 -23 0 -26 -32 -2 -25 -8 -37 -20 -39 -16 -3 -18 7 -18 102 l0
106 58 0 c36 0 66 -6 80 -16z m-160 -92 c-2 -58 -6 -76 -14 -68 -6 6 -9 17 -6
25 3 8 1 12 -5 8 -14 -9 -7 81 8 99 6 8 13 14 15 14 3 0 3 -35 2 -78z m230 -5
c0 -26 -4 -47 -9 -47 -6 0 -7 -6 -3 -12 4 -7 -2 -4 -14 6 -27 24 -27 31 -1 67
11 16 17 29 12 29 -5 0 -9 10 -10 21 -2 21 -2 22 12 2 7 -10 13 -40 13 -66z"/>
<path d="M4560 1719 c0 -29 2 -30 38 -27 29 2 38 8 40 24 2 15 -4 23 -20 28
-47 12 -58 8 -58 -25z"/>
<path d="M1118 1785 c-3 -14 -1 -25 3 -25 5 0 9 11 9 25 0 14 -2 25 -4 25 -2
0 -6 -11 -8 -25z"/>
<path d="M1709 1730 c-53 -16 -118 -66 -272 -213 -56 -52 -113 -96 -155 -117
-59 -30 -78 -34 -172 -39 -91 -5 -110 -9 -140 -31 -46 -33 -70 -57 -62 -64 3
-3 -4 -6 -16 -6 -17 0 -24 -10 -35 -47 l-14 -48 44 -3 c48 -3 175 20 263 48
66 21 272 120 325 155 20 14 39 25 43 25 13 1 62 49 62 61 0 6 7 9 14 6 11 -4
13 -1 9 10 -4 10 -2 14 4 10 6 -4 23 7 37 24 14 17 26 27 26 23 0 -4 11 7 25
26 14 19 23 41 20 49 -3 9 -3 12 1 8 17 -16 59 89 47 119 -6 15 -15 16 -54 4z
m31 -40 c-6 -10 -9 -25 -8 -31 2 -7 -6 -17 -17 -23 -14 -8 -20 -20 -18 -38 1
-15 -2 -30 -6 -33 -5 -2 -8 3 -7 12 0 10 -7 18 -19 20 -20 3 -20 3 0 -5 19 -9
19 -9 0 -20 -11 -6 -16 -12 -11 -12 5 0 -3 -9 -18 -21 -20 -16 -24 -24 -16
-34 7 -9 7 -15 1 -19 -5 -4 -14 2 -20 11 -10 17 -10 17 -11 0 0 -10 -4 -15
-10 -12 -5 3 -10 3 -10 -2 0 -4 -14 -14 -31 -22 -22 -10 -28 -16 -20 -24 19
-19 12 -29 -14 -23 -19 5 -23 3 -19 -9 7 -18 -16 -20 -36 -2 -12 10 -12 9 0
-6 12 -16 12 -20 -1 -28 -19 -12 -32 -11 -24 1 3 6 -3 10 -15 10 -13 0 -20 -5
-18 -12 7 -19 -18 -39 -39 -31 -10 3 -15 3 -11 -2 4 -4 -9 -15 -30 -25 -96
-44 -111 -49 -117 -40 -3 6 -12 10 -18 10 -7 0 -6 -4 3 -10 8 -5 11 -10 5 -11
-5 -1 -14 -3 -20 -4 -5 -2 -16 -3 -22 -4 -7 0 -13 -8 -13 -17 0 -8 -4 -13 -10
-9 -5 3 -17 1 -27 -4 -35 -20 -135 -42 -178 -40 -37 2 -43 5 -39 23 5 30 62
83 116 110 43 21 57 23 128 19 68 -5 80 -3 80 9 0 10 13 18 33 22 31 6 70 23
134 60 13 7 20 16 15 21 -4 4 1 5 11 2 11 -4 16 -3 12 3 -3 6 -1 10 5 10 6 0
9 4 6 9 -3 5 1 12 10 15 10 4 13 2 8 -7 -4 -6 16 12 44 42 28 29 55 50 61 46
15 -9 44 22 35 37 -5 8 -2 9 9 5 11 -4 14 -2 11 7 -3 8 9 24 28 36 18 13 27
17 21 10 -18 -20 -16 -35 2 -20 8 7 15 17 15 23 0 20 35 46 63 46 24 1 26 -1
17 -19z m-190 -100 c0 -5 -5 -10 -11 -10 -5 0 -7 5 -4 10 3 6 8 10 11 10 2 0
4 -4 4 -10z"/>
<path d="M1447 1439 c7 -7 15 -10 18 -7 3 3 -2 9 -12 12 -14 6 -15 5 -6 -5z"/>
<path d="M1310 1370 c-10 -6 -4 -8 22 -7 20 1 34 5 31 10 -6 10 -35 9 -53 -3z"/>
<path d="M1065 1230 c3 -5 11 -10 16 -10 6 0 7 5 4 10 -3 6 -11 10 -16 10 -6
0 -7 -4 -4 -10z"/>
<path d="M988 1223 c7 -3 16 -2 19 1 4 3 -2 6 -13 5 -11 0 -14 -3 -6 -6z"/>
<path d="M2190 1594 c0 -8 5 -12 10 -9 6 3 10 10 10 16 0 5 -4 9 -10 9 -5 0
-10 -7 -10 -16z"/>
<path d="M1000 1570 c0 -5 4 -10 9 -10 6 0 13 5 16 10 3 6 -1 10 -9 10 -9 0
-16 -4 -16 -10z"/>
<path d="M1107 1473 c-11 -19 -18 -85 -8 -79 11 7 26 74 18 82 -3 3 -7 2 -10
-3z"/>
<path d="M2201 1404 c0 -11 3 -14 6 -6 3 7 2 16 -1 19 -3 4 -6 -2 -5 -13z"/>
<path d="M1610 1366 c0 -2 7 -6 15 -10 8 -3 15 -1 15 4 0 6 -7 10 -15 10 -8 0
-15 -2 -15 -4z"/>
<path d="M1681 1324 c0 -11 3 -14 6 -6 3 7 2 16 -1 19 -3 4 -6 -2 -5 -13z"/>
<path d="M1430 1238 c0 -10 3 -18 8 -18 4 0 27 -18 51 -40 45 -41 78 -56 46
-20 -10 11 -24 20 -31 20 -8 0 -11 6 -8 15 4 10 0 15 -11 15 -9 0 -25 10 -36
23 -16 19 -18 19 -19 5z"/>
<path d="M1375 1210 c4 -6 -5 -10 -22 -10 -21 0 -24 -3 -14 -9 9 -6 22 -6 32
0 10 5 28 9 40 9 29 0 16 13 -17 18 -16 2 -23 -1 -19 -8z"/>
<path d="M1318 1173 c7 -3 16 -2 19 1 4 3 -2 6 -13 5 -11 0 -14 -3 -6 -6z"/>
<path d="M1265 1160 c3 -5 10 -10 16 -10 5 0 9 5 9 10 0 6 -7 10 -16 10 -8 0
-12 -4 -9 -10z"/>
<path d="M1228 1143 c7 -3 16 -2 19 1 4 3 -2 6 -13 5 -11 0 -14 -3 -6 -6z"/>
<path d="M1052 1091 c-7 -4 -24 -6 -38 -3 -13 2 -24 0 -24 -7 0 -6 20 -10 54
-8 38 1 52 6 49 15 -6 14 -22 15 -41 3z"/>
<path d="M898 1063 c12 -2 32 -2 45 0 12 2 2 4 -23 4 -25 0 -35 -2 -22 -4z"/>
<path d="M905 1040 c3 -5 8 -10 11 -10 2 0 4 5 4 10 0 6 -5 10 -11 10 -5 0 -7
-4 -4 -10z"/>
<path d="M927 1023 c-11 -18 50 -73 80 -73 l27 0 -24 17 c-14 10 -28 18 -31
18 -4 0 -16 11 -26 24 -12 14 -22 20 -26 14z"/>
<path d="M1090 1026 c0 -2 7 -9 15 -16 9 -7 15 -8 15 -2 0 5 -7 12 -15 16 -8
3 -15 4 -15 2z"/>
</g>
</svg>
